<svg xmlns="http://www.w3.org/2000/svg" xmlns:xlink="http://www.w3.org/1999/xlink" viewBox="0 0 1298.552 747.344"><defs><style>.a{clip-path:url(#a);}.b{fill:#0a0a16;}.c{clip-path:url(#b);}.d{fill:#272534;}.e{fill:#191626;}.f{fill:#bfb7d6;}.g{fill:#5c5e75;}.h{fill:#787ca4;}.i{fill:#d3d0db;}.j{fill:#b1a9c5;}.k{fill:#fef6f9;}.l{fill:#0f1021;fill-rule:evenodd;}.m{clip-path:url(#p);}.n{fill:#fff;}</style><clipPath id="a"><rect width="1298.552" height="747.344"/></clipPath><clipPath id="b"><rect width="1298.552" height="730.436"/></clipPath><clipPath id="p"><rect width="1276.233" height="730.436"/></clipPath></defs><g transform="translate(0 25)"><g class="a" transform="translate(0 -25)"><path class="b" d="M0,0H1298.552V771.4H0Z" transform="translate(0 -24.056)"/></g><g class="c" transform="translate(0 -8.092)"><path class="d" d="M1332.231,271.23c-1.731,3.36-1.385,2.63-6.752,4.675-4.848,1.753-6.406-.876-10.562,3.506-3.29,3.506-1.385,5.843-5.714,9.2-5.541,4.237-13.332,2.922-19.738,5.843-5.194,2.337-8.484,9.35-14.371,9.057-5.714-.146-5.541-4.821-10.215-6.428-1.9-.584-5.367.292-7.272.292-4.156,0-9.177,1.315-13.332.584-5.194-.877-9-4.967-14.2-5.844-5.887-1.023-10.908.877-16.275-1.753s-6.406-6.282-10.388-9.934c-4.155-3.8-12.639-11.687-19.738-14.609-1.9-.73-6.406-.73-7.445-1.461-1.558-1.023-3.117-3.36-4.675-4.237-1.731-.876-1.385-2.922-3.982-3.8-2.251-.877-6.753.584-9.35.292-8.311-1.023-16.448-8.181-22.854-13.148-6.06-4.529-9.869-9.642-16.621-14.317-5.194,0-11.6,1.461-16.795.73-3.636-.438-6.753-2.776-10.215-3.944-3.636-1.169-6.233-1.315-9.35-2.776-2.77-1.315-4.155-3.214-6.406-4.237-5.54-2.191-12.812-1.315-18.872,1.023-4.675,1.9-8.83,7.889-12.986,8.911-5.021,1.315-5.021-1.023-9.869-2.191-7.272-1.607-12.986,2.922-18.872,1.9-2.943-.438-10.215-4.675-12.293-5.99-4.329-2.776-8.311-9.2-14.024-10.81-3.29-.877-5.541,1.753-8.657,1.023-2.078-.438-8.311-4.529-10.562-6.136-9-6.866-11.254,1.169-19.738,3.214-4.5,1.023-9.35-.73-13.5.73-2.77.877-6.06,4.967-8.484,6.574-6.406,4.09-14.2,6.428-20.95,10.957-5.887,3.944-11.6,5.113-18.007,8.327-3.982,1.9-5.367,6.428-9.35,8.181-2.943,1.315-7.618.146-10.388,1.461-7.791,3.652-9.523,16.8-20.777,12.271-3.463-1.461-2.77-4.675-5.887-6.72-4.328-3.068-3.636-1.023-9.35-1.607-6.06-.584-17.487-3.8-19.565,2.483-7.791-4.09-13.159-6.574-19.738-11.833-7.272-5.843-7.445-5.113-16.448-.877-2.77,1.315-5.887,2.483-8.484,3.652a33.04,33.04,0,0,0-8.484,4.967c-5.367,3.652-10.908,6.428-16.448,10.664-3.463,2.63-3.463,4.09-7.791,5.844-2.424,1.023-9.176.73-10.735,1.9-2.424,1.9,0,4.237-1.9,6.136-2.6,2.483-6.406,1.607-9,3.652-2.77,2.045-2.078,4.675-3.636,7.012-2.6,3.944-3.463,5.259-8.311,8.327-5.714,3.652-8.484,5.259-11.081,9.934-2.251,3.944-1.558,8.911-6.233,11.541-2.424-6.136-10.388-3.8-16.275-3.8a65.035,65.035,0,0,1-.866-8.327c-7.272-1.169-9.35-2.337-14.2-7.012-2.77-2.63-11.081-11.249-14.024-12.125-12.812-3.652-29.78,10.81-36.359,16.216-3.117,2.63-3.29,4.967-7.791,6.428-4.155,1.461-10.042-.584-14.2.73-4.5,1.315-4.848,3.944-8.138,5.551s-6.06,1.169-9.523,2.191a168.323,168.323,0,0,0-19.219,6.866c-6.752,2.922-11.081,8.911-16.1,14.024-8.311-5.7-15.756-2.922-25.452-3.944-3.29-.438-6.06-1.753-10.388-2.045-3.29-.292-6.406.146-9.523-.292-7.1-1.023-12.639-5.7-19.392-7.158-6.406-1.461-11.774,1.023-18.007-.146-5.021-.877-9.7-5.113-15.756-5.113-7.964,0-13.505,7.012-20.95,3.36-4.155-2.045-2.943-6.136-8.83-7.45-3.636-.877-6.233,1.315-9.869.73-7.1-1.169-10.215-8.181-18.353-5.259-5.714,2.191-10.215-1.9-15.583.584-2.078.877-3.809,6.574-5.54,8.181-4.155,3.652-7.272,5.259-10.388,9.2-3.29,4.09-5.194,9.2-12.293,9.934-4.328.438-5.367-1.461-9.176-2.337-5.714-1.461-1.731-2.337-9.35-1.315-12.639,1.753-19.911,11.249-33.935,11.687-9,.292-15.063-4.529-23.028-7.889-5.887-2.483-11.081-4.675-17.487-6.866-3.982-1.315-8.138-3.36-12.293-4.529-5.367-1.753-9.523-5.7-14.89-7.743-3.809-1.315-7.618-.877-10.735-2.191-5.021-2.045-4.675-4.237-8.657-6.574-4.848-2.922-7.445-.877-12.466-2.63-4.328-1.461-5.714-4.675-9-7.012-6.752-4.821-14.024-4.675-20.431-7.889-5.54-2.776-7.791-8.473-13.332-11.541-6.406-3.36-14.544-5.113-20.777-9.2C98.607,261,87.7,249.463,74.887,240.551c-6.06-4.237-13.159-15.339-20.6-17.238-7.1-1.9-3.982.438-7.964,3.506-4.329,3.214-2.77,3.652-10.562,5.113-4.5.877-8.138,3.36-12.639.292-2.078-1.315-1.039-5.259-3.29-7.012-2.078-1.461-5.194-1.023-7.272-2.045-2.77-1.607-7.445-3.068-10.215-4.821-1.039-.73-3.29,0-4.848-1.023-2.251-1.461-1.731-3.8-3.463-5.551-3.982-3.944-3.636-4.529-8.83-3.506V627.682l1347.031-67.346Z" transform="translate(-10.825 93.988)"/></g><g class="c" transform="translate(0 -8.092)"><path class="e" d="M1332.085,293.093a24.915,24.915,0,0,1-7.791,3.36,45.175,45.175,0,0,0-15.929,8.035c-5.714,4.529-11.254,10.08-18.353,13.44S1274.949,321,1268.37,324.5c-6.406,3.36-10.908,10.518-19.045,11.833-6.579,1.169-14.544-1.753-21.469-1.607-17.833.438-33.589-5.259-50.73-9.2-6.579-1.607-14.717-1.169-20.95-3.36-8.138-2.922-12.985-8.181-21.989-9.934-3.636-.73-6.06.584-9.869-1.023-3.29-1.315-5.541-6.136-8.484-6.866-4.5-.876-12.293,3.652-15.929,5.405-8.484,3.944-18.872,11.833-29.261,11.979-24.759.292-41.034-21.621-66.313-14.755-4.5,1.315-10.388,2.191-14.89,4.237-5.021,2.191-9,7.45-13.678,9.2-5.194,1.753-8.484,1.315-13.5,4.821s-8.138,7.743-15.756,7.158c-6.233-.438-12.12-4.675-18.7-5.844-9.35-1.607-16.1-5.843-25.105-8.765-7.791-2.484-15.236-8.619-22.335-10.664-2.77-.877-6.579.877-9-.146-4.155-1.607-3.117-6.136-6.233-8.619-10.562-8.181-28.741-18.553-40-17.384s-16.275,8.765-23.893,12.71c-5.887,2.922-13.5,2.922-19.045,6.574-4.155,2.63-5.367,9.934-10.735,13.732-13.159,9.057-30.992,1.9-45.882,0-8.138-1.023-13.678-2.776-21.989-4.821-11.427-2.776-14.717.438-24.759-.292-15.236-1.023-23.893-4.675-40.688-3.068-36.186,3.8-68.39-18.115-104.577-17.677-2.77-24.1-35.494-1.315-47.614,3.944-11.427,4.967-25.105,4.09-35.321,8.327-5.541,2.337-10.908,10.372-18.353,13.878a77.863,77.863,0,0,1-21.123,5.7c-10.215,1.461-12.466.292-21.643,4.383-9.7,4.529-8.83,10.08-20.6,7.158-3.463-.877-18.18-11.1-21.123-13.44-4.155-3.214-8.83-8.473-13.678-12.417-7.445-6.136-14.89-5.259-22.335-7.889-5.54-2.045-12.293-6.282-18.353-8.181-11.081-3.652-12.639-1.461-23.2,2.337-1.731.584-6.579,5.259-8.83,6.428-1.385.73-7.618-.73-10.562.438-16.795,6.72-33.416,17.092-50.73,21.767-7.964,2.191-16.795.146-24.586,2.776-9.176,3.068-10.215,8.619-20.777,9.2-4.675.292-17.66-3.944-23.893-5.405-8.138-1.9-16.275-8.181-24.24-9.5,0,0-21.643,4.237-23.028,4.675-7.791,3.506-7.791,9.35-13.332,11.687-5.367,2.337-20.777,3.36-26.664,4.675-12.12,2.484-5.021,6.282-19.738-.438C8.081,331.222.117,316.759-13.734,307.555a3.735,3.735,0,0,1-.866-.584V661.086c29.953.877,60.08.877,91.418-1.169,70.295-4.529,140.936-8.473,211.058-14.609,109.078-9.642,216.945-29.656,326.889-32.431,170.716-4.383,342.125-2.045,512.842-10.226,70.468-3.36,136.608-13.586,205-26.442V293.093Z" transform="translate(-10.678 127.784)"/></g><g class="c" transform="translate(0 -8.092)"><path class="f" d="M1332.231,399.295c-97.3,9.2-250.88,15.777-436.14-3.506C572.492,362.189,427.227,270.3,406.45,270.3c-17.487,0-126.912,17.823-421.25,70.122V649.834H1332.231Z" transform="translate(-10.825 124.573)"/></g><g class="c" transform="translate(0 -8.092)"><path class="g" d="M667.61,647.859h487.909V397.173c-97.3,9.2-250.88,15.777-436.14-3.506-250.015-26-393.548-86.776-455.532-113.071-34.109-12.564-58.348-3.8-8.138,21.037s245.686,87.652,344.376,108.1,140.07,54.052,72.719,65.739-162.579,26.3-160.847,54.052,102.5,7.3,193.917,46.748C741.714,591.908,714.184,619.81,667.61,647.859Z" transform="translate(166.061 126.695)"/></g><g class="c" transform="translate(0 -8.092)"><path class="h" d="M1340.62,504.945c-32.377,2.922-80.164,4.237-127.258-5.551-82.934-17.238-87.436-34.331-141.8-51.277-54.539-16.946-559.763,3.068-559.763,3.068s-36.359-28.049-54.539-28.049S273.9,426.788,273.9,426.788s-103.884-52.884-116-46.31l-6.06,15.339L-16.8,478.8v58.873l1357.42,20.89Z" transform="translate(-12.288 175.091)"/></g><g class="c" transform="translate(0 -8.092)"><path class="i" d="M1332.231,584.384v-67.2c-181.97-2.191-208.807-17.092-241.531-31.847-35.494-16.07-7.791-16.07-8.657-29.217s-64.928-17.53-204.132-20.452c-139.2-3.068-321-2.045-374.676,2.337s-47.44-15.047-47.44-15.047c-90.9,1.169-250.88-4.821-276.851-12.563-25.971-7.889-22.508-30.094-22.508-30.094s-33.762,16.07-70.122,21.913c-19.738,3.214-56.271,6.136-101.114,7.45v174.72Z" transform="translate(-10.825 175.269)"/></g><g class="c" transform="translate(0 -8.092)"><path class="j" d="M312.952,409.5C284.384,427.323,180.5,455.956,180.5,455.956s83.973-6.866,103.884-15.923S312.952,409.5,312.952,409.5Z" transform="translate(132.018 188.727)"/></g><g class="c" transform="translate(0 -8.092)"><path class="j" d="M195.2,380.2c-53.673,23.374-221.446,71.583-263,78.887,0,0,156.519-18.261,205-35.353C185.677,406.5,195.2,380.2,195.2,380.2Z" transform="translate(-49.589 175.223)"/></g><g class="c" transform="translate(0 -8.092)"><path class="j" d="M639.593,441.3c-24.24,16.654-65.793,33.454-65.793,33.454s38.957-8.035,50.211-12.417S639.593,441.3,639.593,441.3Z" transform="translate(419.679 203.382)"/></g><g class="c" transform="translate(0 -8.092)"><path class="h" d="M309.1,450.786s4.848-9.2,7.791-9.5,2.251-4.09,5.541-4.09,10.042,12.271,10.562,13.586S318.8,454.292,309.1,450.786Z" transform="translate(226.077 201.493)"/><path class="j" d="M321.22,437.4c-1.9.877-1.731,3.506-4.328,3.8-2.943.292-7.791,9.5-7.791,9.5C313.429,447.626,322.778,448.357,321.22,437.4Z" transform="translate(226.077 201.585)"/><path class="h" d="M289.8,493.424s4.5-9.5,5.54-10.81,2.6-3.8,5.194-3.506,6.06,3.214,6.06,3.214a2.5,2.5,0,0,1,3.29-.292c1.9,1.315,8.311,11.395,8.311,11.395S300.362,498.1,289.8,493.424Z" transform="translate(211.96 220.796)"/><path class="j" d="M301.427,495.277a3.888,3.888,0,0,0-1.9-2.045c-7.1-5.405,2.6-2.63,2.078-6.136-.519-2.922,1.9-4.09-3.117-7.6a12.27,12.27,0,0,0-2.943,2.922c-1.039,1.315-5.541,10.81-5.541,10.81A27.948,27.948,0,0,0,301.427,495.277Z" transform="translate(212.107 220.988)"/><path class="h" d="M52.231,512.408c-1.212-1.9,13.159-10.372,17.314-12.71s14.2-3.506,16.1,0,0,9.788,0,9.788,5.194,0,6.406,2.776C93.092,515.183,55,516.5,52.231,512.408Z" transform="translate(38.149 229.277)"/><path class="h" d="M90.1,506.283s5.54-9.642,8.657-8.765c2.943.876,10.042,8.765,10.042,8.765S95.64,508.036,90.1,506.283Z" transform="translate(65.899 229.266)"/><path class="h" d="M68.993,482.044c-2.424-2.63,15.756-16.8,23.2-17.969,7.445-1.315,37.4,3.214,37.4,3.214S117.3,480,101.89,482.19C86.654,484.236,71.937,485.258,68.993,482.044Z" transform="translate(50.3 213.769)"/><path class="h" d="M101.583,501.656c-3.29-1.9-1.558-7.889,5.194-10.372s-.693-5.405,0-8.911,7.1-19.722,9.35-18.553,25.105,13.44,36.013,17.238,50.9,14.9,49,17.092-59.907,4.675-73.758,4.675S105.392,503.847,101.583,501.656Z" transform="translate(73.116 213.733)"/><path class="j" d="M150.359,463.8c-6.752.584-35.667,18.553-53.5,26.15C78.852,497.546,53.4,503.1,53.4,503.1h91.072C169.231,503.1,150.359,463.8,150.359,463.8Z" transform="translate(39.057 213.752)"/><path class="h" d="M607.664,494.4c-2.251-1.315-1.039-5.551,3.636-7.3s-.519-3.8,0-6.282,5.021-13.878,6.579-13,17.66,9.5,25.278,12.125S679,490.313,677.612,491.92s-42.073,3.36-51.769,3.36S610.261,496.01,607.664,494.4Z" transform="translate(443.644 215.58)"/><path class="j" d="M641.844,467.8c-4.675.438-24.932,13-37.571,18.407-12.639,5.259-30.473,9.2-30.473,9.2h63.889C655,495.41,641.844,467.8,641.844,467.8Z" transform="translate(419.679 215.595)"/><path class="j" d="M108.557,464c-12.812.584-62.157,22.79-62.157,22.79s42.766,4.383,71.161,0C145.956,482.261,108.557,464,108.557,464Z" transform="translate(33.937 213.844)"/><path class="j" d="M79.587,497.6a23.016,23.016,0,0,0-10.042,2.191c-4.155,2.191-18.526,10.664-17.314,12.71C61.58,512.355,79.587,504.466,79.587,497.6Z" transform="translate(38.149 229.329)"/><path class="h" d="M.031,458.108c-1.212-1.9,13.159-10.372,17.314-12.71s14.2-3.506,16.1,0,0,9.788,0,9.788,5.194,0,6.406,2.776C40.892,461.029,2.8,462.2.031,458.108Z" transform="translate(-0.031 204.251)"/><path class="j" d="M27.387,443.3a23.016,23.016,0,0,0-10.042,2.191C13.189,447.683-1.181,456.156.031,458.2,9.38,458.055,27.387,450.312,27.387,443.3Z" transform="translate(-0.031 204.304)"/><path class="j" d="M98.757,497.518c-2.943-.877-8.657,8.765-8.657,8.765a3.457,3.457,0,0,0,1.731,0C96.333,505.7,102.739,500.732,98.757,497.518Z" transform="translate(65.899 229.265)"/><path class="h" d="M448.831,472.708c-1.212-1.9,13.159-10.372,17.314-12.71s14.2-3.506,16.1,0,0,9.788,0,9.788,5.194,0,6.406,2.776C489.519,475.483,451.428,476.8,448.831,472.708Z" transform="translate(328.223 210.98)"/><path class="h" d="M486.6,466.583s5.541-9.642,8.657-8.765c2.943.877,10.042,8.765,10.042,8.765S492.314,468.336,486.6,466.583Z" transform="translate(355.901 210.969)"/><path class="j" d="M476.087,457.8a23.016,23.016,0,0,0-10.042,2.191c-4.155,2.191-18.526,10.664-17.314,12.71C458.08,472.7,476.26,464.812,476.087,457.8Z" transform="translate(328.15 210.987)"/><path class="j" d="M495.257,457.818c-2.943-.877-8.657,8.765-8.657,8.765a3.456,3.456,0,0,0,1.731,0C492.833,466,499.239,461.032,495.257,457.818Z" transform="translate(355.901 210.969)"/><path class="h" d="M462.5,476.086s4.848-9.2,7.791-9.5,2.251-4.09,5.541-4.09,10.042,12.271,10.562,13.586S472.2,479.592,462.5,476.086Z" transform="translate(338.274 213.153)"/><path class="j" d="M474.62,462.7c-1.9.877-1.731,3.506-4.329,3.8-2.943.292-7.791,9.5-7.791,9.5C466.829,472.926,476.178,473.657,474.62,462.7Z" transform="translate(338.274 213.245)"/></g><g class="c" transform="translate(0 -8.092)"><path class="h" d="M73.3,456.4c.693-.584,23.72-10.372,26.317-12.417s22.162,9.2,27.183,12.125S73.3,456.4,73.3,456.4Z" transform="translate(53.612 204.503)"/><path class="j" d="M99.617,443.9c-2.6,2.045-25.8,11.979-26.317,12.417C73.3,456.317,106.37,452.227,99.617,443.9Z" transform="translate(53.612 204.581)"/><path class="h" d="M188.4,453c3.117.584,23.72,2.63,41.381-5.99,0,0-18.007-4.821-23.547-5.7S188.4,453,188.4,453Z" transform="translate(137.796 203.369)"/><path class="j" d="M203.117,441.7c-6.06,2.337-14.717,11.1-14.717,11.1S209.177,447.251,203.117,441.7Z" transform="translate(137.796 203.567)"/><path class="h" d="M418.5,512.885s29.78-20.306,33.416-20.744c3.809-.438,14.89,5.113,14.89,5.113s10.908-1.753,13.332-.584,10.908,6.72,10.908,6.72,22.335-13.148,25.105-14.463c2.6-1.461,8.138-6.136,9.7-6.72s12.293,11.1,12.293,11.1,9.869-3.214,11.947-2.045,6.752,5.551,6.752,5.551,9.35-4.821,10.388-4.383,17.487,16.07,17.487,16.07,8.83-5.99,12.639-3.506a84.989,84.989,0,0,1,9.869,8.035H418.5Z" transform="translate(306.092 222.225)"/><g transform="translate(724.592 704.119)"><path class="j" d="M514.6,501.4s12.986,3.068,13.332-3.068a2.39,2.39,0,0,0-.693-.438C523.257,495.407,514.6,501.4,514.6,501.4Z" transform="translate(-348.212 -474.933)"/><path class="j" d="M489.756,499.537a85.414,85.414,0,0,1,8.138-7.6s6.579,5.844,7.618,6.282c.866.292,9-3.8,13.678-6.282a5.726,5.726,0,0,0-1.385-.877c-2.078-1.169-11.947,2.045-11.947,2.045s-10.908-11.687-12.293-11.1c-1.558.584-7.1,5.405-9.7,6.72-1.9,1.023-14.89,8.619-21.469,12.417C462.573,501.29,486.64,503.043,489.756,499.537Z" transform="translate(-386.392 -481.986)"/><path class="j" d="M451.743,493.29s11.947,3.652,15.063.73c0,0-11.254-5.551-14.89-5.113-3.809.438-33.416,20.744-33.416,20.744C436.16,508.191,451.743,493.29,451.743,493.29Z" transform="translate(-418.5 -478.807)"/><path class="j" d="M507.838,489.109c-.693-.292-5.367,1.753-8.138,3.214C499.7,492.323,507.664,494.514,507.838,489.109Z" transform="translate(-359.11 -478.715)"/></g></g><g transform="translate(298.321 36.027)"><ellipse class="k" cx="3.809" cy="3.214" rx="3.809" ry="3.214" transform="translate(0 0)"/><ellipse class="k" cx="2.943" cy="2.483" rx="2.943" ry="2.483" transform="translate(666.244 202.038)"/></g><g class="c" transform="translate(0 -8.092)"><path class="l" d="M128.6,124.45v-4.237h0c0-.438-.173-.73-.173-1.169,0-.584-.173-1.169-.173-1.607l-.519-2.191v-.292h0c0-.146-.173-.292-.173-.584a.486.486,0,0,0-.173-.438c-.173-.438-.173-.877-.346-1.315,0-.146-.173-.438-.173-.584-.173-.438-.346-1.023-.519-1.461h0c0-.146,0-.146-.173-.292h0c0-.146-.173-.292-.173-.584a11.517,11.517,0,0,1-.866-2.191c-.346-.584-.519-1.023-.866-1.607a4.148,4.148,0,0,0-.693-1.169h0c-.173-.292-.346-.438-.519-.73,0-.146-.173-.146-.173-.292s-.173-.292-.173-.438h0c-.173-.292-.519-.73-.693-1.023h0c-.346-.438-.693-1.023-1.039-1.461a26.533,26.533,0,0,0-2.77-3.214h0v-.146c-.346-.438-.693-.73-1.039-1.169-.519-.438-.866-.877-1.385-1.315h0l-.519-.438-1.385-1.169c-.693-.438-1.212-1.023-1.9-1.461-.519-.438-1.039-.73-1.558-1.169-.346-.292-.693-.438-1.039-.73-.173-.146-.519-.292-.693-.438l-.346-.292c-.519-.292-1.039-.73-1.558-1.023-.346-.146-.519-.292-.866-.438a7.978,7.978,0,0,0-1.212-.584c-.173-.146-.346-.146-.519-.292-.519-.292-.866-.438-1.385-.73-.519.438-.693.438-.866.292a11.139,11.139,0,0,1-1.385-.584c-.519-.292-1.212-.438-1.731-.73-.346-.146-.519-.146-.866-.292-.519-.146-.866-.292-1.385-.438-.693-.146-1.385-.438-1.9-.584-.346-.146-.693-.146-.866-.292-.346-.146-.693-.146-1.039-.292l-2.078-.438a8.735,8.735,0,0,1-.866-.146,3.452,3.452,0,0,0-1.212-.146,15.844,15.844,0,0,0-2.251-.438c-.519,0-.866-.146-1.385-.146a2.562,2.562,0,0,1-1.039-.146c-.519,0-1.039-.146-1.558-.146-.693,0-1.385-.146-1.9-.146H75.621c-.519,0-1.039.146-1.558.146h-.519c-.519,0-.866.146-1.385.146-.346,0-.519.146-.866.146-.519.146-1.212.146-1.731.292s-1.039.146-1.558.292c-.173,0-.519.146-.693.146a1.194,1.194,0,0,0-.693.146h0c-.519.146-1.212.292-1.731.438-.866.292-1.731.438-2.77.73a8.063,8.063,0,0,0-1.731.584h-.173c-.866.292-1.9.73-2.77,1.023a5.617,5.617,0,0,0-1.385.584h-.173c-1.385.584-2.77,1.315-4.155,2.045h0c-1.385.73-2.77,1.607-3.982,2.337a19.912,19.912,0,0,0-2.078,1.607,9.593,9.593,0,0,0-1.385,1.023h0a36.846,36.846,0,0,0-6.233,6.136h0a.153.153,0,0,1-.173.146c-.346.292-.519.73-.866,1.023l-1.039,1.315h0a37.916,37.916,0,0,0-2.251,3.36h0a9.141,9.141,0,0,0-.519,1.169l-.519.877c-.173.438-.346.73-.519,1.169h0c-.173.438-.346.73-.519,1.169h0c-.173.292-.173.438-.346.73s-.173.73-.346,1.023c-.346.877-.519,1.753-.866,2.483-.173.292-.173.73-.346,1.023v.146h0a25.1,25.1,0,0,0-.693,3.506,7.062,7.062,0,0,0-.173,1.9h0a4.656,4.656,0,0,1-.173,1.607h0v.584a26.844,26.844,0,0,0,.173,3.652h0v1.607h0v.292h0c.173.877.173,1.607.346,2.483,0,.292.173.584.173.877.173,1.023.519,1.9.693,2.922v.292h0v.146c0,.146.173.292.173.438,0,.292.173.438.173.73.173.292.173.584.346.877h0c.173.584.519,1.023.693,1.607.173.292.173.584.346.877a30.965,30.965,0,0,0,1.731,3.36c.173.146.173.438.346.584a24.257,24.257,0,0,0,2.251,3.36h0a36.054,36.054,0,0,0,2.424,2.922c.173.146.346.292.346.438.173.146.346.438.519.584a8.314,8.314,0,0,0,1.731,1.607c.346.292.519.584.866.877l.519.438c.519.438,1.212.877,1.731,1.315l.866.73a.947.947,0,0,0,.519.292c.346.292.693.438,1.039.73a9.593,9.593,0,0,1,1.385,1.023c.346.146.693.438,1.039.584a7.441,7.441,0,0,0,1.212.73c.346.146.693.438,1.039.584a7.484,7.484,0,0,0,1.558.73c.346.146.519.292.866.438a9.331,9.331,0,0,0,1.212.438c.519.292,1.039.438,1.558.73.173,0,.173.146.346.146h0c.173,0,.346.146.519.146.693.292,1.212.438,1.9.73a15.3,15.3,0,0,0,2.424.73c.693.146,1.212.438,1.9.584.866.146,1.731.438,2.6.584.693.146,1.212.292,1.9.438.866.146,1.9.292,2.77.438.519.146,1.212.146,1.731.292a28.854,28.854,0,0,0,3.463.146h5.714c.519,0,1.039-.146,1.385-.146.866-.146,1.731-.146,2.6-.292a10.17,10.17,0,0,1,2.078-.292c.866-.146,1.731-.292,2.424-.438a11.065,11.065,0,0,0,2.078-.584,15.3,15.3,0,0,0,2.424-.73,11.753,11.753,0,0,0,2.078-.73c.519-.146.866-.292,1.385-.438h0c1.558-.584,3.29-1.315,4.848-2.045h0l1.558-.877h.173c1.039-.584,1.9-1.023,2.77-1.607,0,0,.173,0,.173-.146.173-.146.346-.146.519-.292.519-.292.866-.584,1.385-.877a4.51,4.51,0,0,1,1.039-.73c.346-.292.866-.584,1.212-.877a18.527,18.527,0,0,0,1.9-1.607h.173a6.8,6.8,0,0,0,1.039-1.023l.173-.146c.519-.584,1.212-1.169,1.731-1.753.346-.438.693-.73,1.039-1.169.173-.292.519-.584.693-.877.173-.146.346-.438.519-.584h0a3.562,3.562,0,0,0,.693-1.023h0a3.562,3.562,0,0,0,.693-1.023l1.039-1.315h0c0-.146.173-.292.173-.292h0c0-.146.173-.292.173-.292.173-.292.346-.438.346-.73a6.6,6.6,0,0,0,.519-1.023h0a.153.153,0,0,1,.173-.146c0-.146.173-.292.173-.292h0a4.148,4.148,0,0,1,.693-1.169,5.591,5.591,0,0,1,.693-1.461c.173-.146.173-.438.346-.584a1.864,1.864,0,0,0,.346-.877c.173-.292.173-.438.346-.73a8.225,8.225,0,0,0,.346-1.023,13.527,13.527,0,0,0,.866-2.776h0l.519-2.63c0-.292.173-.584.173-1.023,0-.292,0-.584.173-.73h0v-1.461c0-.438.173-1.023.173-1.461C128.6,125.034,128.6,124.742,128.6,124.45Z" transform="translate(20.991 37.561)"/></g><g class="c" transform="translate(0 -8.092)"><path class="l" d="M646.982,89.642c-.208.644-.416,1.288-.694,1.932,4.232,3.1,6.313,5.736,5.481,7.434-.971,1.815-5.134,2.283-11.377,1.522h-.069l.069-.059h0a27.052,27.052,0,0,0,3.469-4.332h0a1.935,1.935,0,0,0,.278-.527c.069-.117.208-.293.278-.41h0c.139-.176.208-.351.347-.527h0c.069-.059.069-.117.139-.176.139-.293.277-.527.416-.819l.208-.351h0c.208-.468.486-.937.694-1.4.139-.293.208-.644.347-.937a11.831,11.831,0,0,0,.555-1.639h0c.069-.176.139-.41.208-.585h0a1.243,1.243,0,0,0,.069-.468l.416-1.932c.069-.293.069-.527.139-.819h0v-.293a3.751,3.751,0,0,0,.069-.878c0-.176.069-.293.069-.468h0v-.293c0-.351.069-.7.069-1.054a10.761,10.761,0,0,0-.069-1.522,8.02,8.02,0,0,0-.069-1.288v-.059h0v-.059c-.069-.7-.208-1.463-.347-2.166a2.936,2.936,0,0,1-.139-.761c-.069-.234-.069-.527-.139-.761h-.069a12.419,12.419,0,0,0-.416-1.522h0v-.059c0-.059-.069-.117-.069-.176s0-.117-.069-.117c-.069-.117-.069-.234-.139-.293h0l-.208-.527a16.545,16.545,0,0,0-.694-1.639c-.208-.527-.555-1-.763-1.522-.208-.351-.347-.7-.555-1-.278-.468-.624-.937-.9-1.4h0a.615.615,0,0,0-.277-.293,8.616,8.616,0,0,1-.486-.761c-.347-.41-.694-.878-1.041-1.288a1.228,1.228,0,0,0-.277-.351h0l-.624-.7c-.416-.41-.763-.819-1.179-1.171-.347-.351-.694-.644-1.041-1-.347-.293-.763-.585-1.11-.937-.416-.351-.9-.7-1.387-1.054a9.282,9.282,0,0,0-.971-.644c-.555-.351-1.11-.761-1.665-1.112-.347-.176-.624-.351-.971-.527-.624-.351-1.249-.7-1.873-1-.416-.176-.763-.351-1.179-.527-.555-.234-1.179-.527-1.734-.761-.624-.234-1.249-.41-1.873-.644-.416-.117-.763-.293-1.179-.41A39.136,39.136,0,0,0,614.446,53c-.694,0-1.457,0-2.151.059h-.069a1.794,1.794,0,0,0-.555.059c-.624,0-1.179.059-1.8.117-.486.059-1.041.117-1.526.176l-1.249.176c-.139,0-.278.059-.416.059-.278.059-.555.059-.833.117h.069c-.416.059-.9.176-1.318.234-.277.059-.486.117-.763.176h0A4.434,4.434,0,0,0,603,54.4h0c-.486.117-.971.293-1.457.41-.208.059-.486.176-.694.234h0l-.416.176a16.305,16.305,0,0,0-1.526.585l-.416.176a4.465,4.465,0,0,0-.555.234,11.967,11.967,0,0,0-1.249.585c-.069,0-.069.059-.139.059h0c-.277.117-.555.293-.832.41a3.2,3.2,0,0,1-.486.234c-.555.293-1.041.585-1.6.937h0l-.139.117c-1.041.644-2.012,1.288-2.983,1.99l-.139.117-.833.7-1.249,1.054a5.725,5.725,0,0,0-.624.585l-.069.059h0c-.069.117-.208.176-.278.293-.277.293-.624.644-.9.937h0c-.139.176-.278.293-.416.468h0c-.208.234-.347.41-.555.644-.278.293-.486.644-.763,1h0a4.268,4.268,0,0,0-.486.7c-.069.117-.208.234-.278.351.208-.234.347-.527.555-.761-10.267-1.58-17.413-1.054-19.008,1.932-1.665,3.278,3.746,8.722,13.667,14.575h0v.117h0a13.085,13.085,0,0,0,.139,1.7l.208,1.229a16.718,16.718,0,0,0,.347,1.815c.069.176.069.41.139.644h.069a27.47,27.47,0,0,0,1.665,4.507h0v.059h0a14.762,14.762,0,0,0,.763,1.463h0l.624,1.054.624.878c.416.585.763,1.112,1.179,1.7a3.239,3.239,0,0,0,.347.468h.069a35.128,35.128,0,0,0,20.6,11.824,40.536,40.536,0,0,0,14.291.234h0c.069,0,.208-.059.277-.059h0a12.831,12.831,0,0,0,1.457-.293h-.069c.486-.117,1.041-.234,1.526-.351.069,0,.208-.059.278-.059h0a37.094,37.094,0,0,0,6.868-2.458h.069c.208-.117.486-.234.694-.351.486-.234.9-.468,1.388-.7l1.249-.7h0c.208-.176.486-.293.694-.468h0a4.812,4.812,0,0,1,.694-.468l1.041-.7h.069c11.655,2.049,19.98,1.756,21.645-1.522C659.47,99.593,655.1,94.852,646.982,89.642ZM572.544,69.8c.9-1.756,4.717-2.224,10.475-1.639.139-.234.347-.468.486-.7l-.208.351-.624,1.054c-.069.117-.139.293-.208.41a3.3,3.3,0,0,1-.278.468c0,.059-.069.117-.069.117h0a1.9,1.9,0,0,0-.278.644c-.208.41-.416.878-.624,1.288h0a3.306,3.306,0,0,0-.139.41c-.069.234-.208.468-.278.7a3.664,3.664,0,0,1-.208.468,14.41,14.41,0,0,0-.555,1.815c0,.059-.069.117-.069.234v.059a.459.459,0,0,1-.069.293,18.128,18.128,0,0,0-.416,1.873c0-.059.069-.059.069-.117-.069.234-.069.41-.139.644h0C574.14,74.6,571.573,71.614,572.544,69.8Z" transform="translate(595.976 190.127)"/></g><g class="m" transform="translate(22.319 -25)"><ellipse class="n" cx="2.042" cy="1.753" rx="2.042" ry="1.753" transform="translate(790.244 63.548)"/><ellipse class="n" cx="2.893" cy="2.483" rx="2.893" ry="2.483" transform="translate(635.32 201.281)"/><ellipse class="n" cx="3.403" cy="2.922" rx="3.403" ry="2.922" transform="translate(80.552 263.39)"/></g></g></svg>