<?xml version="1.0" encoding="utf-8"?>
<!-- Generator: Adobe Illustrator 16.0.0, SVG Export Plug-In . SVG Version: 6.00 Build 0)  -->
<!DOCTYPE svg PUBLIC "-//W3C//DTD SVG 1.1//EN" "http://www.w3.org/Graphics/SVG/1.1/DTD/svg11.dtd">
<svg version="1.1" id="Layer_1" xmlns="http://www.w3.org/2000/svg" xmlns:xlink="http://www.w3.org/1999/xlink" x="0px" y="0px"
	 width="474.5px" height="511px" viewBox="23.8 157 474.5 511" style="enable-background:new 23.8 157 474.5 511;"
	 xml:space="preserve">
<style type="text/css">
<![CDATA[
	.st0bbr{fill:#0B0BB7;}
]]>
</style>
<path class="st0bbr" d="M498.2,161.6c0,0-155.1-19.2-145.9,20.6c4.8,20.8-70.7,34.4-61.8,53c10.1,21.2,92.7,89.4,106,114.8
	c13.2,25.4,9.7,59.9-26.5,103.8c-36.2,43.9-69.7-19.7-120.5-20.3c-20.2-0.2-48.6,12.4-69,15.5c-82.5,12.5-145.6,20.4-150.5,39
	c-13.9,52.4-7.5,81.4,55.4,129.2c72.5,44.5,141.3-1,171.1,9.3C295.7,640,317,667.3,361.3,668S421.4,649,465,628.5
	c26.7-12.5,33.3-12.4,33.3-12.4L498.2,161.6z"/>
</svg>
