<svg xmlns="http://www.w3.org/2000/svg" xmlns:xlink="http://www.w3.org/1999/xlink" viewBox="0 0 195.717 243.891"><defs><style>.a{fill:#fff;}.b{fill:#0080ff;}.c{fill:#f03c2e;}.d{fill:url(#a);}.e{fill:#6f95db;}.f{fill:rgba(255,255,255,0.1);}</style><radialGradient id="a" cx="795.774" cy="1824.615" r="0.009" gradientTransform="translate(-21.508 -188.376) scale(1.152 1.152)" gradientUnits="userSpaceOnUse"><stop offset="0" stop-color="#93b4e7"/><stop offset="0.593" stop-color="#b9d1f8"/><stop offset="1" stop-color="#9cb6e0"/></radialGradient></defs><g transform="translate(-157.192 5.945)"><g transform="translate(157.192 -5.945)"><path class="a" d="M451.087,218.037h1.273a36.051,36.051,0,1,1-1.226,72.091c-.424-.005-.848-.005-1.278-.005a36.051,36.051,0,1,1,1.231-72.091m0-8.9h0a44.954,44.954,0,1,0-1.54,89.894c.524-.006,1.048.02,1.571.02a44.954,44.954,0,1,0,1.535-89.894c-.524.007-1.048-.02-1.571-.02Z" transform="translate(-394.392 -198.435)"/><rect class="a" width="10.537" height="11.093" transform="translate(51.983 0) rotate(1.99)"/><rect class="a" width="10.537" height="11.093" transform="matrix(0.839, 0.544, -0.544, 0.839, 81.139, 5.506)"/><rect class="a" width="10.537" height="11.093" transform="translate(102.944 24.439) rotate(62.99)"/><rect class="a" width="10.537" height="11.093" transform="translate(106.434 80.95) rotate(123.99)"/><rect class="a" width="10.537" height="11.093" transform="matrix(-0.515, 0.857, -0.857, -0.515, 22.262, 27.009)"/><rect class="a" width="10.574" height="11.131" transform="translate(14.227 72.722) rotate(60.113)"/><rect class="a" width="10.537" height="11.093" transform="translate(41.204 13.618) rotate(150.99)"/><rect class="a" width="10.537" height="11.093" transform="translate(48.52 99.774) rotate(1.99)"/><rect class="a" width="10.537" height="11.093" transform="translate(72.234 97.691) rotate(-29.01)"/><rect class="a" width="10.537" height="11.093" transform="matrix(-0.839, -0.544, 0.544, -0.839, 32.291, 105.804)"/><rect class="a" width="12.758" height="9.427" transform="translate(0.327 49.262) rotate(1.99)"/><rect class="a" width="12.758" height="9.427" transform="translate(113.09 62.595) rotate(-178.01)"/><g transform="translate(36.002 33.836)"><path class="b" d="M21.159,42.642V34.419A13.036,13.036,0,0,0,33.309,16.612a12.27,12.27,0,0,0-7.385-7.385A13,13,0,0,0,9.113,16.822a13.437,13.437,0,0,0-.838,4.5H0A21.4,21.4,0,0,1,28.072,1.162,20.647,20.647,0,0,1,41.479,14.57,21.419,21.419,0,0,1,21.159,42.642Z" transform="translate(0 -0.131)"/><path class="b" d="M22.7,58.17H14.422V50H22.7M14.422,64.56H8.137V58.17h6.285v6.39M8.137,58.17H2.9V52.933H8.137" transform="translate(-1.381 -23.882)"/></g></g><g transform="translate(239.762 61.908)"><g transform="translate(0)"><rect class="a" width="10.537" height="11.093" transform="translate(49.917 99.844)"/><rect class="a" width="10.537" height="11.093" transform="matrix(-0.857, -0.515, 0.515, -0.857, 33.896, 106.439)"/><path class="a" d="M611.747,347.253a36.054,36.054,0,1,1-36.054,36.052,36.054,36.054,0,0,1,36.054-36.052m0-8.9A44.957,44.957,0,1,0,656.7,383.305,44.957,44.957,0,0,0,611.747,338.35Z" transform="translate(-555.174 -327.833)"/><path class="a" d="M0,0H10.537V11.093H0Z" transform="translate(49.917)"/><rect class="a" width="10.537" height="11.093" transform="matrix(0.857, 0.515, -0.515, 0.857, 79.25, 4.501)"/><rect class="a" width="10.537" height="11.093" transform="matrix(0.485, 0.875, -0.875, 0.485, 101.696, 22.664)"/><rect class="a" width="10.537" height="11.093" transform="matrix(-0.53, 0.848, -0.848, -0.53, 107.141, 79.034)"/><rect class="a" width="10.537" height="11.093" transform="matrix(-0.485, 0.875, -0.875, -0.485, 21.155, 28.038)"/><rect class="a" width="10.537" height="11.093" transform="matrix(0.53, 0.848, -0.848, 0.53, 15.416, 73.152)"/><rect class="a" width="10.537" height="11.093" transform="matrix(-0.857, 0.515, -0.515, -0.857, 39.607, 14.007)"/><rect class="a" width="10.537" height="11.093" transform="matrix(0.857, -0.515, 0.515, 0.857, 73.539, 96.931)"/><rect class="a" width="12.758" height="9.427" transform="translate(0 51.032)"/><rect class="a" width="12.758" height="9.427" transform="translate(113.146 60.459) rotate(180)"/></g><path class="c" d="M44.864,24.947,24.947,44.864a2.977,2.977,0,0,1-4.124,0L16.7,40.74l5.231-5.231a3.721,3.721,0,0,0,3.621-.8,3.5,3.5,0,0,0,.8-3.621l5.03-5.03a3.721,3.721,0,0,0,3.621-.8,3.485,3.485,0,1,0-4.929-4.929,3.594,3.594,0,0,0-.8,3.823L24.544,28.87V16.3a5.528,5.528,0,0,0,.905-.7,3.485,3.485,0,0,0-4.929-4.929,3.4,3.4,0,0,0,0,4.929,4.466,4.466,0,0,0,1.107.8V28.97a2.853,2.853,0,0,0-1.107.8,3.594,3.594,0,0,0-.8,3.823l-5.231,5.231L.9,25.047a2.977,2.977,0,0,1,0-4.124L20.822.9a2.977,2.977,0,0,1,4.124,0L44.864,20.822a2.8,2.8,0,0,1,0,4.124" transform="translate(34.29 33.747)"/></g><g transform="translate(157.7 127.015)"><path class="a" d="M771.667,223.343A36.054,36.054,0,1,1,735.613,259.4a36.053,36.053,0,0,1,36.054-36.052m0-8.9A44.957,44.957,0,1,0,816.624,259.4a44.957,44.957,0,0,0-44.957-44.955Z" transform="translate(-715.088 -203.929)"/><rect class="a" width="10.537" height="11.093" transform="translate(49.922)"/><rect class="a" width="10.537" height="11.093" transform="matrix(0.857, 0.515, -0.515, 0.857, 79.259, 4.492)"/><rect class="a" width="10.537" height="11.093" transform="matrix(0.485, 0.875, -0.875, 0.485, 101.704, 22.657)"/><rect class="a" width="10.537" height="11.093" transform="matrix(-0.53, 0.848, -0.848, -0.53, 107.145, 79.031)"/><rect class="a" width="10.537" height="11.093" transform="matrix(-0.485, 0.875, -0.875, -0.485, 21.157, 28.039)"/><rect class="a" width="10.537" height="11.093" transform="matrix(0.53, 0.848, -0.848, 0.53, 15.419, 73.151)"/><rect class="a" width="10.537" height="11.093" transform="matrix(-0.857, 0.515, -0.515, -0.857, 39.612, 14)"/><rect class="a" width="10.537" height="11.093" transform="translate(49.922 99.839)"/><rect class="a" width="10.537" height="11.093" transform="matrix(0.857, -0.515, 0.515, 0.857, 73.544, 96.928)"/><rect class="a" width="10.537" height="11.093" transform="matrix(-0.857, -0.515, 0.515, -0.857, 33.898, 106.432)"/><rect class="a" width="12.758" height="9.427" transform="translate(0 51.027)"/><rect class="a" width="12.758" height="9.427" transform="translate(113.157 60.454) rotate(180)"/><g transform="translate(34.412 30.628)"><path class="d" d="M675.844,582,653.9,594.606v25.329l21.944,12.606,21.944-12.606V594.606Z" transform="translate(-653.9 -581.883)"/><path class="e" d="M674.255,592.9,663.4,599.2v12.606l10.855,6.3,10.855-6.3V599.2Z" transform="translate(-652.311 -580.061)"/><path class="f" d="M675.844,581.9,653.9,594.623l21.944,11.906,21.944-11.906Zm0,26.263L653.9,619.835l21.944,12.606,21.827-12.723-21.827-11.556Z" transform="translate(-653.9 -581.9)"/></g></g></g></svg>