<svg xmlns="http://www.w3.org/2000/svg" xmlns:xlink="http://www.w3.org/1999/xlink" viewBox="0 0 816.03 709.8">
  <defs>
    <style>
      .cls-1 {
        fill: #6c63ff;
      }

      .cls-1, .cls-14, .cls-6, .cls-7 {
        opacity: 0.1;
      }

      .cls-2 {
        fill: #d48a9b;
      }

      .cls-3 {
        fill: #6e6c64;
      }

      .cls-4 {
        fill: #ef3434;
      }

      .cls-5 {
        fill: #e2d8aa;
        opacity: 0.56;
      }

      .cls-8 {
        fill: rgba(0,0,0,0.25);
      }

      .cls-9 {
        fill: #d62828;
      }

      .cls-10 {
        fill: #e1dee5;
      }

      .cls-11 {
        fill: #07123e;
      }

      .cls-12 {
        fill: #d9d6df;
      }

      .cls-13 {
        fill: #051864;
      }

      .cls-14, .cls-19 {
        fill: #fff;
      }

      .cls-15 {
        fill: url(#linear-gradient);
      }

      .cls-16 {
        fill: url(#linear-gradient-2);
      }

      .cls-17 {
        fill: url(#linear-gradient-4);
      }

      .cls-18 {
        fill: url(#linear-gradient-6);
      }

      .cls-20 {
        fill: #444053;
      }

      .cls-21 {
        fill: url(#linear-gradient-7);
      }

      .cls-22 {
        fill: #d1d9ec;
      }

      .cls-23 {
        fill: #dfe6f5;
      }

      .cls-24 {
        fill: none;
      }

      .cls-25 {
        fill: #746d83;
      }

      .cls-26 {
        fill: #06051a;
      }

      .cls-27 {
        fill: url(#linear-gradient-14);
      }
    </style>
    <linearGradient id="linear-gradient" x1="0.5" x2="0.5" y2="1" gradientUnits="objectBoundingBox">
      <stop offset="0" stop-color="#f9dfbc"/>
      <stop offset="1" stop-color="#fcb455"/>
    </linearGradient>
    <linearGradient id="linear-gradient-2" x1="0.826" y1="-0.498" x2="1" y2="1.509" gradientUnits="objectBoundingBox">
      <stop offset="0" stop-color="#00b2b2"/>
      <stop offset="1" stop-color="#0080ff"/>
    </linearGradient>
    <linearGradient id="linear-gradient-4" x1="0.5" x2="0.5" y2="1" gradientUnits="objectBoundingBox">
      <stop offset="0" stop-color="#dff7fe"/>
      <stop offset="1" stop-color="#384770"/>
    </linearGradient>
    <linearGradient id="linear-gradient-6" x1="0.5" x2="0.5" y2="1" gradientUnits="objectBoundingBox">
      <stop offset="0" stop-color="#fcb455"/>
      <stop offset="1" stop-color="#f9dfbc"/>
    </linearGradient>
    <linearGradient id="linear-gradient-7" x1="0.5" x2="0.5" y2="1" gradientUnits="objectBoundingBox">
      <stop offset="0" stop-color="#040036"/>
      <stop offset="1" stop-color="#000547"/>
    </linearGradient>
    <linearGradient id="linear-gradient-14" x1="0.714" y1="0.904" x2="0.302" y2="0.223" gradientUnits="objectBoundingBox">
      <stop offset="0" stop-color="#559dfc"/>
      <stop offset="1" stop-color="#00b2b2"/>
    </linearGradient>
  </defs>
  <g id="undraw_on_the_office_fbfs" transform="translate(-3.974 0.024)">
    <path id="Path_230" data-name="Path 230" class="cls-1" d="M1080.079,308.36H1004.42v95.517h70.129c.181.986.354,1.971.56,2.948H1004.42v77.013l.354-.12q3-1.1,5.95-2.331l1.267-.54q3.028-1.294,5.95-2.768c.7-.334,1.391-.686,2.074-1.046a123.3,123.3,0,0,0,29.765-21.426c.255-.231.494-.471.724-.7,1.209-1.217,2.395-2.443,3.547-3.7l1.267-1.406c1.358-1.534,2.666-3.12,3.942-4.722l.56-.7a100.5,100.5,0,0,0,12.821-21.426c.107-.231.2-.471.3-.7,1.028-2.417,1.958-4.868,2.765-7.362.346-1.054.675-2.108.963-3.162.1-.317.19-.626.272-.934,4.2-15.3,4.683-31.2,4.683-47.008v-5.528c0-6.385-.091-12.856-.206-19.241,0-1.663-.074-3.317-.115-4.988q-.148-6.368-.444-12.718c-.049-1.183-.1-2.357-.173-3.522,0-.677-.066-1.354-.107-2.031C1080.408,313.236,1080.26,310.8,1080.079,308.36Z" transform="translate(-261.614 -74.864)"/>
    <path id="Path_231" data-name="Path 231" class="cls-1" d="M1004.414,176.187h41.5a293.434,293.434,0,0,0-22.1-28.145c-6.172-7.011-12.648-13.85-19.429-20.432Z" transform="translate(-261.609 -49.023)"/>
    <path id="Path_232" data-name="Path 232" class="cls-1" d="M1004.42,187.726V288.162h75.42c0-.291-.049-.591-.074-.857-.066-.788-.132-1.577-.206-2.374s-.173-1.851-.271-2.785-.2-2.014-.313-3.008-.214-2.014-.337-3.017-.239-2.005-.37-3-.255-2.005-.4-3c-.115-.857-.222-1.646-.346-2.477-.173-1.166-.354-2.34-.543-3.5a5.045,5.045,0,0,0-.09-.514,222.888,222.888,0,0,0-5.546-25.223,178,178,0,0,0-9.357-25.6A187.825,187.825,0,0,0,1047.9,187.7Z" transform="translate(-261.614 -57.614)"/>
    <path id="Path_233" data-name="Path 233" class="cls-1" d="M665.962,269.406v95.517h161.6V269.406Zm0,98.465v64.681c18.812-6.265,40.323-3.737,59.826,1.406,15.1,3.994,29.814,9.427,44.89,13.336a158.812,158.812,0,0,0,20.466,4.028l1.7.189c.823.086,1.646.171,2.469.24l2.469.18h1.358a2.788,2.788,0,0,0,.379,0l1.333.051h.041c.634,0,1.275,0,1.917.051h5.283a13.4,13.4,0,0,0,1.44-.051c.773,0,1.547-.069,2.329-.129l1.44-.094,1.777-.146c1.259-.1,2.469-.24,3.744-.394.494-.06,1-.12,1.489-.2l.732-.094c1.243-.171,2.469-.377,3.711-.591.913-.146,1.827-.326,2.749-.5V367.871Zm120.2-204.832v2.948h-120.2V266.458h161.6V166.022h-8.106v-2.948h8.106V98.162c-31.435-26.371-68.179-47.026-109.1-56.564a223.188,223.188,0,0,0-52.5-5.7V163.074Zm-369.489-.566.568.566H647.883V36.781C606.819,40.337,566.776,54.7,534.493,78.5c-15.512,11.424-29.444,24.965-46.849,33.733a71.057,71.057,0,0,1-29.3,7.885Zm-1.588-51.8v28.582l22.285-22.651c-8.287-2.983-14.821-5.022-22.318-5.9Zm-.741,359.579h.741V532.9q12.615-.977,25.132-2.691a435.349,435.349,0,0,0,108.831-29.362h0q5.629-2.348,11.175-4.851,3.695-1.671,7.349-3.428,5.481-2.622,10.879-5.391a379.4,379.4,0,0,0,45.976-27.819c.913-.643,1.835-1.294,2.74-1.954q2.732-1.971,5.423-3.977c.9-.677,1.794-1.354,2.683-2.04l1.827-1.457c1.843-1.431,3.678-2.871,5.538-4.285h0c1.72-1.286,3.456-2.571,5.217-3.771V367.828H462.57c.132-.437.255-.857.395-1.32-.148.446-.28.857-.4,1.32H415.047V470.236ZM415.08,166V266.458h232.8V166.022Zm0,103.384v95.534h232.8V269.406ZM368.536,113.614l28.44,28.908V110.546Q382.682,111.471,368.536,113.614ZM170.5,269.406v95.517H396.976V269.406Zm54.74,235.9A406.757,406.757,0,0,0,332,531.685h.156q10.361,1.14,20.779,1.765h.255c14.557.857,29.172,1.054,43.763.489V367.871H170.5l.823,109.975M107.77,364.923h44.668V269.406H134.77c-1.835,3.36-3.613,6.736-5.3,10.164q-1.358,2.734-2.642,5.528C115.2,310.236,107.811,337.866,107.77,364.923Zm0,2.948c.362,19.4,4.559,38.447,13.767,56.042,7.653,14.612,18.285,27.425,30.868,38.567V367.871Zm28.621-101.413H152.4V241.6a266.167,266.167,0,0,0-15.981,24.854ZM236.729,163.074H391.635l.56-.566-.823-.857h0L347.815,117.4a342.542,342.542,0,0,0-38.241,10.67c-1.185.4-2.37.857-3.547,1.243a340.7,340.7,0,0,0-69.3,33.759ZM170.5,219.1v47.36H397v-97.7l-3.176-2.691H232.17A313.974,313.974,0,0,0,170.5,219.1Z" transform="translate(-102.832 -35.91)"/>
    <path id="Path_234" data-name="Path 234" class="cls-1" d="M1004.42,246.84v49.777h75.42c0-.291-.049-.591-.074-.857-.066-.789-.132-1.577-.206-2.374s-.173-1.851-.271-2.785-.2-2.014-.313-3.008-.214-2.014-.337-3.017-.239-2.005-.37-3-.255-2.005-.4-3c-.115-.857-.222-1.646-.346-2.477-.173-1.166-.354-2.34-.543-3.5a5.052,5.052,0,0,0-.09-.514,222.89,222.89,0,0,0-5.546-25.223Z" transform="translate(-261.614 -66.069)"/>
    <path id="Path_235" data-name="Path 235" class="cls-1" d="M1080.079,308.36H1004.42v95.517h70.129c.181.986.354,1.971.56,2.948H1004.42v77.013l.354-.12q3-1.1,5.95-2.331l1.267-.54q3.028-1.294,5.95-2.768c.7-.334,1.391-.686,2.074-1.046a123.3,123.3,0,0,0,29.765-21.426c.255-.231.494-.471.724-.7,1.209-1.217,2.395-2.443,3.547-3.7l1.267-1.406c1.358-1.534,2.666-3.12,3.942-4.722l.56-.7a100.5,100.5,0,0,0,12.821-21.426c.107-.231.2-.471.3-.7,1.028-2.417,1.958-4.868,2.765-7.362.346-1.054.675-2.108.963-3.162.1-.317.19-.626.272-.934,4.2-15.3,4.683-31.2,4.683-47.008v-5.528c0-6.385-.091-12.856-.206-19.241,0-1.663-.074-3.317-.115-4.988q-.148-6.368-.444-12.718c-.049-1.183-.1-2.357-.173-3.522,0-.677-.066-1.354-.107-2.031C1080.408,313.236,1080.26,310.8,1080.079,308.36Z" transform="translate(-261.614 -74.864)"/>
    <path id="Path_236" data-name="Path 236" class="cls-1" d="M811.56,163.739v86.055h56.888V163.739h-8.106V134.6h-33.3v29.139Z" transform="translate(-143.713 -19.246)"/>
    <rect id="Rectangle_30" data-name="Rectangle 30" class="cls-1" width="56.888" height="95.508" transform="translate(667.846 233.496)"/>
    <path id="Path_237" data-name="Path 237" class="cls-1" d="M970.22,423.25H913.34v79.422A159.856,159.856,0,0,0,933.8,506.7l1.7.189c.823.094,1.646.171,2.469.24l2.469.18h.255a7.983,7.983,0,0,1,1.1.051h.379a11.765,11.765,0,0,1,1.341.051h0c.634,0,1.275,0,1.917.051h5.283l1.448-.051c.765,0,1.547-.069,2.321-.129l1.432-.094,1.786-.146c1.251-.112,2.469-.24,3.736-.394l1.489-.2.732-.094c1.243-.18,2.469-.368,3.711-.591.922-.146,1.827-.326,2.749-.5Z" transform="translate(-245.485 -91.289)"/>
    <rect id="Rectangle_31" data-name="Rectangle 31" class="cls-1" width="46.914" height="96.211" transform="translate(312.215 134.329)"/>
    <path id="Path_238" data-name="Path 238" class="cls-1" d="M379.4,272.45v95.517H612.236v-41.2H488.214v24.306H426.306V272.45Z" transform="translate(-67.185 -38.954)"/>
    <path id="Path_239" data-name="Path 239" class="cls-1" d="M480.27,525.447h.741v62.658q12.615-.994,25.132-2.691a436.13,436.13,0,0,0,108.864-29.4q15.01-6.274,29.4-13.661a379.4,379.4,0,0,0,45.976-27.828q5.505-3.891,10.838-7.962c2.469-1.894,4.938-3.822,7.406-5.7,1.72-1.286,3.456-2.571,5.217-3.78V423.031h-185.3c.132-.437.255-.857.387-1.311-.14.437-.28.857-.4,1.311H481.011V525.4Z" transform="translate(-168.795 -91.07)"/>
    <path id="Path_240" data-name="Path 240" class="cls-1" d="M332.5,178.451h30.563v-8.819H349.37V143.45c-1.185.4-2.37.857-3.547,1.243v24.94H332.5Z" transform="translate(-142.628 -51.288)"/>
    <path id="Path_241" data-name="Path 241" class="cls-1" d="M243,288.166H420.923v-96.22h-7.883v71.134H377v-42.1H347.214V187.73H316.651v33.253H286.878v42.089H243Z" transform="translate(-126.779 -57.618)"/>
    <path id="Path_242" data-name="Path 242" class="cls-1" d="M232.552,308.36v95.517H410.475V308.36Zm6.213,235.9a406.759,406.759,0,0,0,106.757,26.38h.156q10.361,1.14,20.779,1.765h.255c14.557.857,29.172,1.054,43.763.489V406.825H232.552v33.862H184l.255,75.6" transform="translate(-116.331 -74.864)"/>
    <path id="Path_243" data-name="Path 243" class="cls-1" d="M149.31,423.25h-41.5c.362,19.4,4.567,38.447,13.767,56.042,7.653,14.621,18.293,27.425,30.868,38.567V457.111H149.31Z" transform="translate(-102.839 -91.289)"/>
    <path id="Path_244" data-name="Path 244" class="cls-1" d="M107.77,406.494H149.3V326.67H126.829C115.2,351.807,107.811,379.438,107.77,406.494Z" transform="translate(-102.832 -77.481)"/>
    <rect id="Rectangle_32" data-name="Rectangle 32" class="cls-1" width="25.132" height="30.168" transform="translate(312.215 161.077)"/>
    <rect id="Rectangle_33" data-name="Rectangle 33" class="cls-1" width="25.132" height="6.942" transform="translate(312.215 223.606)"/>
    <rect id="Rectangle_34" data-name="Rectangle 34" class="cls-1" width="25.132" height="20.269" transform="translate(312.215 233.496)"/>
    <rect id="Rectangle_35" data-name="Rectangle 35" class="cls-1" width="25.132" height="30.168" transform="translate(312.215 286.127)"/>
    <rect id="Rectangle_36" data-name="Rectangle 36" class="cls-1" width="25.132" height="30.168" transform="translate(312.215 348.656)"/>
    <path id="Path_245" data-name="Path 245" class="cls-1" d="M481.011,538.836h0v7h25.132V515.67H481.011Z" transform="translate(-168.795 -104.501)"/>
    <path id="Path_246" data-name="Path 246" class="cls-1" d="M481.17,588.63v23.3q12.615-.994,25.132-2.691V588.673Z" transform="translate(-168.955 -114.932)"/>
    <rect id="Rectangle_37" data-name="Rectangle 37" class="cls-1" width="107.703" height="2.211" transform="translate(437.348 326.793)"/>
    <rect id="Rectangle_38" data-name="Rectangle 38" class="cls-1" width="107.703" height="8.493" transform="translate(437.348 331.961)"/>
    <rect id="Rectangle_39" data-name="Rectangle 39" class="cls-1" width="107.703" height="13.661" transform="translate(437.348 368.291)"/>
    <path id="Path_247" data-name="Path 247" class="cls-1" d="M633.23,514.06v13.661h84.25q5.489-3.882,10.838-7.971c2.469-1.885,4.938-3.814,7.406-5.682Z" transform="translate(-195.882 -104.271)"/>
    <path id="Path_248" data-name="Path 248" class="cls-1" d="M633.23,562.47v13.661h8.863q15-6.256,29.395-13.661Z" transform="translate(-195.882 -111.192)"/>
    <rect id="Rectangle_40" data-name="Rectangle 40" class="cls-1" width="21.198" height="19.635" transform="translate(250.381 262.396) rotate(180)"/>
    <rect id="Rectangle_41" data-name="Rectangle 41" class="cls-1" width="21.198" height="19.635" transform="translate(709.453 170.898) rotate(180)"/>
    <rect id="Rectangle_42" data-name="Rectangle 42" class="cls-1" width="21.198" height="19.635" transform="translate(709.453 216.51) rotate(180)"/>
    <rect id="Rectangle_43" data-name="Rectangle 43" class="cls-1" width="21.198" height="19.635" transform="translate(709.453 262.113) rotate(180)"/>
    <rect id="Rectangle_44" data-name="Rectangle 44" class="cls-1" width="21.198" height="19.635" transform="translate(709.453 307.724) rotate(180)"/>
    <rect id="Rectangle_45" data-name="Rectangle 45" class="cls-1" width="21.198" height="19.635" transform="translate(709.453 353.344) rotate(180)"/>
    <rect id="Rectangle_46" data-name="Rectangle 46" class="cls-1" width="21.198" height="19.635" transform="translate(709.453 398.947) rotate(180)"/>
    <rect id="Rectangle_47" data-name="Rectangle 47" class="cls-1" width="21.198" height="19.635" transform="translate(169.439 262.396) rotate(180)"/>
    <rect id="Rectangle_48" data-name="Rectangle 48" class="cls-1" width="21.198" height="19.635" transform="translate(250.381 310.818) rotate(180)"/>
    <rect id="Rectangle_49" data-name="Rectangle 49" class="cls-1" width="21.198" height="19.635" transform="translate(169.439 310.818) rotate(180)"/>
    <rect id="Rectangle_50" data-name="Rectangle 50" class="cls-1" width="21.198" height="19.635" transform="translate(250.381 359.249) rotate(180)"/>
    <rect id="Rectangle_51" data-name="Rectangle 51" class="cls-1" width="21.198" height="19.635" transform="translate(169.439 359.249) rotate(180)"/>
    <rect id="Rectangle_52" data-name="Rectangle 52" class="cls-1" width="21.198" height="19.635" transform="translate(250.381 407.681) rotate(180)"/>
    <rect id="Rectangle_53" data-name="Rectangle 53" class="cls-1" width="21.198" height="19.635" transform="translate(169.439 407.681) rotate(180)"/>
    <rect id="Rectangle_54" data-name="Rectangle 54" class="cls-1" width="21.198" height="19.635" transform="translate(250.381 456.12) rotate(180)"/>
    <rect id="Rectangle_55" data-name="Rectangle 55" class="cls-1" width="21.198" height="19.635" transform="translate(169.439 456.12) rotate(180)"/>
    <path id="Path_249" data-name="Path 249" class="cls-1" d="M299.69,578.468V565.81H278.5v10.859Z" transform="translate(-49.317 -80.893)"/>
    <path id="Path_250" data-name="Path 250" class="cls-1" d="M1004.42,276.26V287.5h72.556V276.26Zm65.331.711h5.917v9.822h-5.95Zm-7.225,0h5.95v9.822H1062.5Zm-7.209,0h5.95v9.822h-5.95Zm-7.225,0h5.95v9.822h-5.95Zm-7.217,0h5.991v9.822h-5.95Zm-7.225,0h5.95v9.822h-5.95Zm-7.225,0h5.95v9.822h-5.95Zm-7.217,0h5.95v9.822h-5.95Zm-7.217,0h5.95v9.822h-5.95Zm-7.217,0h5.95v9.822h-5.95Z" transform="translate(-261.614 -70.275)"/>
    <path id="Path_251" data-name="Path 251" class="cls-1" d="M1004.42,314.42v11.236h72.556V314.42Zm65.331.711h5.917v9.813h-5.95Zm-7.225,0h5.95v9.813H1062.5Zm-7.209,0h5.95v9.813h-5.95Zm-7.225,0h5.95v9.813h-5.95Zm-7.217,0h5.991v9.813h-5.95Zm-7.225,0h5.95v9.813h-5.95Zm-7.225,0h5.95v9.813h-5.95Zm-7.217,0h5.95v9.813h-5.95Zm-7.217,0h5.95v9.813h-5.95Zm-7.217,0h5.95v9.813h-5.95Z" transform="translate(-261.614 -75.73)"/>
    <path id="Path_252" data-name="Path 252" class="cls-1" d="M1004.42,352.57V363.8h72.556V352.57Zm65.331.7h5.917v9.822h-5.95Zm-7.225,0h5.95v9.822H1062.5Zm-7.209,0h5.95v9.822h-5.95Zm-7.225,0h5.95v9.822h-5.95Zm-7.217,0h5.991v9.822h-5.95Zm-7.225,0h5.95v9.822h-5.95Zm-7.225,0h5.95v9.822h-5.95Zm-7.217,0h5.95v9.822h-5.95Zm-7.217,0h5.95v9.822h-5.95Zm-7.217,0h5.95v9.822h-5.95Z" transform="translate(-261.614 -81.184)"/>
    <path id="Path_253" data-name="Path 253" class="cls-1" d="M1004.42,390.72v11.227h72.556V390.72Zm65.331.7h5.917v9.822h-5.95Zm-7.225,0h5.95v9.822H1062.5Zm-7.209,0h5.95v9.822h-5.95Zm-7.225,0h5.95v9.822h-5.95Zm-7.217,0h5.991v9.822h-5.95Zm-7.225,0h5.95v9.822h-5.95Zm-7.225,0h5.95v9.822h-5.95Zm-7.217,0h5.95v9.822h-5.95Zm-7.217,0h5.95v9.822h-5.95Zm-7.217,0h5.95v9.822h-5.95Z" transform="translate(-261.614 -86.638)"/>
    <path id="Path_254" data-name="Path 254" class="cls-1" d="M1004.42,428.87v11.253h68.22c.1-.231.2-.471.288-.7h-3.177v-9.839h5.917v2.443c.346-1.046.675-2.091.963-3.154Zm58.106.711h5.95v9.813H1062.5Zm-7.209,0h5.95v9.813h-5.95Zm-7.225,0h5.95v9.813h-5.95Zm-7.217,0h5.991v9.813h-5.95Zm-7.225,0h5.95v9.813h-5.95Zm-7.225,0h5.95v9.813h-5.95Zm-7.217,0h5.95v9.813h-5.95Zm-7.217,0h5.95v9.813h-5.95Zm-7.217,0h5.95v9.813h-5.95Z" transform="translate(-261.614 -92.092)"/>
    <path id="Path_255" data-name="Path 255" class="cls-1" d="M1004.42,467v11.227h45.351c.263-.231.494-.48.733-.7h-2.411v-9.8h5.95v6.128l1.276-1.414v-4.714h3.942c.189-.24.37-.48.56-.7Zm36.455.7h5.991v9.822h-5.95Zm-7.225,0h5.95v9.822h-5.95Zm-7.225,0h5.95v9.822h-5.95Zm-7.217,0h5.95v9.822h-5.95Zm-7.217,0h5.95v9.822h-5.95Zm-7.217,0h5.95v9.822h-5.95Z" transform="translate(-261.614 -97.543)"/>
    <path id="Path_256" data-name="Path 256" class="cls-1" d="M1004.42,505.18v6.8a2.494,2.494,0,0,0,.354-.129v-6h5.95V509.5l1.267-.54v-3.077h5.95v.343c.7-.334,1.391-.686,2.074-1.037Z" transform="translate(-261.614 -103.002)"/>
    <path id="Path_257" data-name="Path 257" class="cls-1" d="M425.33,287.692h.041ZM470.541,491.5h0ZM518.8,389.088h0c.132-.437.255-.857.395-1.32C519.052,388.213,518.92,388.651,518.8,389.088Zm-93.467-101.4h.041Zm417.062-103.4v2.948h33.3V184.29ZM470.541,491.5h0ZM518.8,389.088h0c.132-.437.255-.857.395-1.32C519.052,388.213,518.92,388.651,518.8,389.088Zm-93.467-101.4h.041ZM470.541,491.5h0ZM518.8,389.088h0c.132-.437.255-.857.395-1.32C519.052,388.213,518.92,388.651,518.8,389.088Z" transform="translate(-159.066 -57.126)"/>
    <path id="Path_258" data-name="Path 258" class="cls-2" d="M665,525.849l-14.22-.814-.963-42.535-.222-10.13,15-2.88.1,13.061Z" transform="translate(-115.033 -67.123)"/>
    <path id="Path_259" data-name="Path 259" class="cls-3" d="M638.38,526.2,565.3,573.515l-1.58,14.4,7.9.411V578.04l47.795-27.974-57.67,74.459v11.519h9.48l-.79-12.753,66.755-78.984,8.3.823,70.318,83.1,1.58,14,9.48.411-1.58-14.407-55.695-72.4,37.13,26.74.79,11.519,7.505.411-.79-13.987L643.515,523.73Z" transform="translate(-99.476 -74.877)"/>
    <path id="Path_260" data-name="Path 260" class="cls-4" d="M642.866,448.824a136.877,136.877,0,0,0,17.216-29.216c5.028-11.587,10.541-24.965,10.961-28.925.823-7.4,20.935-22.214,43.055-23.037,14.426-.54,36.9-12.264,50.807-20.363a100.479,100.479,0,0,1,42.627-13.713c16.269-1.277,31.567,2.048,23.865,21.709L727.955,485.737S639.739,501.926,634.3,475.9a22.272,22.272,0,0,0-1.259-3.822C632.012,469.616,631.74,463.2,642.866,448.824Z" transform="translate(-195.767 -78.433)"/>
    <path id="Path_261" data-name="Path 261" class="cls-5" d="M652.5,452.614a140.886,140.886,0,0,0,17.388-29.482c4.691-10.833,9.669-22.977,10.064-26.654.757-7.071,20.03-21.22,41.2-22.009,13.8-.514,35.3-11.707,48.6-19.446a96.266,96.266,0,0,1,40.8-13.061c15.561-1.217,30.2,1.963,22.861,20.74L751.357,487.83s-101.219,14.955-106.576-9.787a25.466,25.466,0,0,0-1.259-3.839C642.584,471.751,642.453,465.744,652.5,452.614Z" transform="translate(-197.633 -79.635)"/>
    <path id="Path_262" data-name="Path 262" class="cls-6" d="M766.47,518.463c-4.756,0-9.768,0-14.878-.051l-.222-10.13,15-2.871Z" transform="translate(-216.803 -103.034)"/>
    <g id="Group_19" data-name="Group 19" class="cls-7" transform="translate(462.274 466.962)">
      <path id="Path_263" data-name="Path 263" d="M729.93,585.039,692.8,558.3l4.254,5.528,32.875,23.68.79,11.519,7.5.411-.14-2.477-7.365-.4Z" transform="translate(-584.957 -546.781)"/>
      <path id="Path_264" data-name="Path 264" d="M573.75,579.554v2.468l44.3-25.925,3.5-4.517Z" transform="translate(-563.875 -545.821)"/>
      <path id="Path_265" data-name="Path 265" d="M561.75,651.9v2.468h9.48l-.156-2.468Z" transform="translate(-561.75 -560.163)"/>
      <path id="Path_266" data-name="Path 266" d="M572.05,596.154l-7.637-.394-.263,2.451,7.9.411Z" transform="translate(-562.175 -552.137)"/>
      <path id="Path_267" data-name="Path 267" d="M719.258,642.776l-1.58-14-70.318-83.1-8.3-.823L572.31,623.844l.14,2.306,66.615-78.822,8.3.823,70.318,83.1,1.58,14,9.48.411-.271-2.485Z" transform="translate(-563.62 -544.86)"/>
    </g>
    <path id="Path_268" data-name="Path 268" class="cls-6" d="M759.52,426.06s18.5,14.09,10.4,14.253S759.52,426.06,759.52,426.06Z" transform="translate(-218.246 -91.69)"/>
    <path id="Path_269" data-name="Path 269" class="cls-8" d="M665.2,491.4s30.612-2.468,42.067-25.505c0,0,23.3-48.14,42.273-53.488s54.115-17.278,68.73-35.79,20.746-32.7,20.746-32.7,3.769,14.981-8.106,32.645-16.2,44.866-24.49,73.705-11.455,40.281-26.465,41.995c-11.315,1.243-71.141.617-99.746,0C670.853,491.989,665.2,491.4,665.2,491.4Z" transform="translate(-201.544 -79.946)"/>
    <path id="Path_270" data-name="Path 270" class="cls-9" d="M665.2,491.4s30.612-2.468,42.067-25.505c0,0,23.3-48.14,42.273-53.488s54.115-17.278,68.73-35.79,20.746-32.7,20.746-32.7,3.769,14.981-8.106,32.645-16.2,44.866-24.49,73.705-11.455,40.281-26.465,41.995c-11.315,1.243-71.141.617-99.746,0C670.853,491.989,665.2,491.4,665.2,491.4Z" transform="translate(-201.544 -79.946)"/>
    <path id="Path_271" data-name="Path 271" class="cls-4" d="M674.56,492.178s29.263-2.391,40.208-24.7c0,0,22.285-46.606,40.405-51.782,11.091-3.168,43.081-16.943,43.081-16.943s2.57-1.43,3.928-2.237c1.776-1.055,3.705-2.282,5.556-3.557a59.283,59.283,0,0,0,13.137-11.921C834.848,363.117,840.7,349.37,840.7,349.37s3.58,14.57-7.744,31.668-15.479,43.417-23.412,71.306-10.945,39.038-25.3,40.632c-10.813,1.2-68,.591-95.343,0C679.967,492.8,674.56,492.178,674.56,492.178Z" transform="translate(-203.201 -80.727)"/>
    <path id="Path_272" data-name="Path 272" class="cls-6" d="M645.76,500.181s16,6.376,25.083,2.88,31.6-13.781,31.6-13.781S664.522,491.783,645.76,500.181Z" transform="translate(-198.101 -100.728)"/>
    <path id="Path_273" data-name="Path 273" class="cls-10" d="M698.885,824.259s-45.984-2.571-57.193-9.427-27.074-6.856-27.156-6.856l-183.1-41.566-76.12-18.855-13.578-1.86,44.849-53.445,1.366-.617,66.113-29.782s29.625,1.714,35.476,21.82a25.163,25.163,0,0,1,.823,4.337,25.928,25.928,0,0,1-4.674,17.6c-2.337,3.325-5.209,8.048-6.114,12.2-.51,2.348-.4,4.516.823,6.171a48.681,48.681,0,0,0,8.13,6.762c16.121,11.141,56.872,29.5,128.062,1.38,0,0,30.448-31.282,53.49-18S698.885,824.259,698.885,824.259Z" transform="translate(-144.264 -125.4)"/>
    <path id="Path_274" data-name="Path 274" class="cls-6" d="M481.382,717.814c-.51,2.348-.4,4.517.823,6.171a48.687,48.687,0,0,0,8.13,6.762l-138.6,10.807,37.986-49.922,66.113-29.782s29.625,1.714,35.476,21.82a25.171,25.171,0,0,1,.823,4.337,25.928,25.928,0,0,1-4.674,17.6C485.159,708.936,482.287,713.658,481.382,717.814Z" transform="translate(-146.035 -125.399)"/>
    <path id="Path_275" data-name="Path 275" class="cls-11" d="M238.631,461.94l113.562,2.571V606.085L244.392,682.2,218.47,657.344l5.349-82.276-5.349-76.7Z" transform="translate(-38.687 -66.044)"/>
    <path id="Path_276" data-name="Path 276" class="cls-12" d="M266.24,463.6l132.588-42.552a19.334,19.334,0,0,1,7.365-.857l316.74,24.074a145.858,145.858,0,0,1,75.429,27.708c20.5,15.058,40.8,38.173,50.2,73.174a145.3,145.3,0,0,1-1.358,78.7l-27.979,94.274S840.208,513.29,630.775,503.006Z" transform="translate(-130.894 -90.843)"/>
    <path id="Path_277" data-name="Path 277" class="cls-13" d="M325.8,492.992v227.4s-36.332-5.322-42.792-12.71c-5.3-6.059-36-23.14-49.326-40.735-2.921-3.857-5.012-7.713-5.81-11.544-4.46-21.152-22.63-71.134-22.63-71.134l4.938-48.851L230.75,503.7l39.911-18.855h30.859Z" transform="translate(-120.092 -100.095)"/>
    <path id="Path_278" data-name="Path 278" class="cls-12" d="M268.682,497.85s-59.052,38.567-46.133,100.625c1.053,5.057,1.967,10.139,2.568,15.281,2.362,20.072,16.532,77.75,101.169,104.353v6l-35.9-10.43-24.375-14L247.4,682.3l-22.745-28.9L214.1,629.834l-3.868-31.042L208,563.353l5.439-30.4,12.829-19.781L241.9,500.515Z" transform="translate(-120.581 -101.954)"/>
    <path id="Path_279" data-name="Path 279" class="cls-6" d="M325.8,492.986v36.175c-25.757,2.914-105.506,19.712-91.344,115.7L233.67,666.9c-2.921-3.857-5.012-7.713-5.81-11.544-4.46-21.152-22.63-71.134-22.63-71.134l4.938-48.851,20.573-31.71,39.911-18.855h30.859Z" transform="translate(-120.09 -100.089)"/>
    <path id="Path_280" data-name="Path 280" class="cls-14" d="M514.775,709.25c-2.337,3.325-5.209,8.048-6.114,12.2-3.588-4.285-4.361-9.213.823-13.113,6.493-4.919,8.657-13.456,9.143-21.032a25.189,25.189,0,0,1,.823,4.336A25.928,25.928,0,0,1,514.775,709.25Z" transform="translate(-173.313 -129.039)"/>
    <path id="Path_281" data-name="Path 281" class="cls-13" d="M885.323,710.471,869.688,765.75l-35.385,36-44.438,9.427L720.74,798.317V542.492s11.932-8.142,13.167-8.142,34.562,5.571,34.562,5.571l75.461,56.367,3.127,2.34,33.74,52.279Z" transform="translate(-211.379 -107.172)"/>
    <path id="Path_282" data-name="Path 282" class="cls-11" d="M618.97,495.44V761.979l6.666,1.243V495.44Z" transform="translate(-109.609 -70.833)"/>
    <path id="Path_283" data-name="Path 283" class="cls-6" d="M845.412,614.062C796.037,571.81,741.148,565.6,720.74,564.825V542.542s11.932-8.142,13.167-8.142,34.562,5.571,34.562,5.571l75.461,56.367Z" transform="translate(-211.379 -107.179)"/>
    <path id="Path_284" data-name="Path 284" class="cls-10" d="M616.941,505.148,307.664,470.009l-34.76-1.92a70.094,70.094,0,0,0-57.777,25.154c-18.1,21.683-31.789,59.933-11.8,125.608,0,0,20.844,85.129,121.792,103.419l293.32,69.223c6.5,1.534,12.92,3.428,19.256,5.579,26.63,9.11,116.854,32.713,159.358-47.523,14.566-27.511,18.927-59.59,13.315-90.469C800.138,602.6,761.519,506.759,616.941,505.148ZM768.464,745.881c-39.664,67.295-121.4,47.266-145.969,39.364-6.015-1.937-12.105-3.625-18.269-5l-270.953-60.37c-93.352-15.967-112.632-90.3-112.632-90.3-15.759-48.851-8.871-80.373,3.868-100.325a67.674,67.674,0,0,1,60.624-31.3l32.028,1.714,276.631,38.49a163.691,163.691,0,0,0,16.878,1.491C733.688,544,771.962,614.446,781.688,663,787.4,691.373,783.055,721.147,768.464,745.881Z" transform="translate(-118.006 -97.681)"/>
    <path id="Path_286" data-name="Path 286" class="cls-15" d="M300.718,577.437s-6.583,14.15-6.246,15.152-14.113,13.01-14.113,13.01L264.65,593.918,266.3,585.9s17.635-16.549,18.927-18.461S300.718,577.437,300.718,577.437Z" transform="translate(-130.613 -111.872)"/>
    <path id="Path_287" data-name="Path 287" class="cls-16" d="M199.12,627.529c10.9,11.021,23.725,7.713,29.822,7.019s38.628-21.04,41.755-22.377a8.7,8.7,0,0,0,2.855-3.034h0a78.147,78.147,0,0,0,5.505-10.6c-.214.06-10.879,3.24-13.57,0,0,0-4.493-5.734-5.456-5.734s-.074-10.062-.074-10.062-11.471,6.719-15.314,10.4-21.807,8.176-21.807,8.176a108.74,108.74,0,0,0-12.9,6.933C201.44,613.645,192.882,621.264,199.12,627.529Z" transform="translate(-118.629 -114.09)"/>
    <path id="Path_289" data-name="Path 289" class="cls-15" d="M194.239,593.673s-4.567,35.73-3.407,40.409-28.662-16.027-28.662-16.027,10.435-22.394,7.406-27.537S194.239,593.673,194.239,593.673Z" transform="translate(-112.465 -114.962)"/>
    <path id="Path_290" data-name="Path 290" class="cls-17" d="M166.457,566.737s18.6,5.674,28.851,5.005c8.986-.583,7.645-9.616,7.176-11.853-.066-.317-.115-.5-.115-.5,6.41-7.354,20.844-62.118,18.927-68.126s1.564-11.313,2.386-11.313,1.8-6.685.2-10.353,7.061-7.01,7.061-7.01c27.255,2.665,56.436-2.04,56.436-2.04s-2.247,8.382-4.172,11.724-7.406,22.369-7.406,26.38-8.657,38.4-11.225,40.075c-1.07.7-2.033,2.451-2.79,4.285a41.216,41.216,0,0,0-1.7,5.142c.963,22.377,25.329,13.713,28.86,10.687a9.192,9.192,0,0,0,3.2-7.353s31.748-33.724,27.576-47.754,10.262-14.355,10.262-14.355,22.128-10.019,25.206-16.035c1.9-3.694,18.491-11.81,30.983-17.518,7.826-3.574,14.039-6.188,14.039-6.188l-5.2-19.42L390.9,414.9l-7.719-3.017-24.687-9.667L314.2,395.75l-4.057.548-43.03,5.8s-62.821,18.718-69.24,21.649-9.941,32.113-9.941,32.113-13.463,48.423-12.8,54.8-4.493,24-4.493,24,0,19.977-2.181,21.332a.111.111,0,0,1-.066,0C166.136,557.087,166.457,566.737,166.457,566.737Z" transform="translate(-113.221 -87.357)"/>
    <path id="Path_291" data-name="Path 291" class="cls-6" d="M244.78,469.285c27.255,2.665,56.436-2.04,56.436-2.04,1.926-6.316,28.876-23.68,28.876-23.68C307.98,437.892,244.78,469.285,244.78,469.285Z" transform="translate(-127.094 -94.095)"/>
    <path id="Path_294" data-name="Path 294" class="cls-6" d="M280.24,572.588c.963,22.377,25.329,13.713,28.86,10.687a9.685,9.685,0,0,0,1.366-1.457c-8.517,3.265-23.618,5.794-28.531-14.338a41.2,41.2,0,0,0-1.7,5.108Z" transform="translate(-133.373 -111.908)"/>
    <path id="Path_295" data-name="Path 295" class="cls-6" d="M166.457,593.47s18.6,5.674,28.851,5.005c8.986-.583,7.645-9.616,7.176-11.853-9.414-.308-25.626-1.226-34.044-3.882a.11.11,0,0,1-.066,0C166.136,583.82,166.457,593.47,166.457,593.47Z" transform="translate(-113.221 -114.09)"/>
    <path id="Path_296" data-name="Path 296" class="cls-16" d="M110,668.865c9.941,7.01,25.017,3.668,25.017,3.668s22.762-11.347,29.5-11.347,19.506-2.335,21.263-8.212-4.44-14.739-4.625-26.01c0,0-14.708-1.156-19.7-2.119l-8.6-3.853c-1.6,4.251-26.2,29.816-32.294,29.816-2.9,0-7.7,2.5-10.854,5.879C106.271,660.431,104.8,665.2,110,668.865Z" transform="translate(-102.624 -119.687)"/>
    <path id="Path_297" data-name="Path 297" class="cls-6" d="M215.55,446.41s20.844,13.713,15.076,16.7S215.55,446.41,215.55,446.41Z" transform="translate(-121.918 -94.6)"/>
    <path id="Path_298" data-name="Path 298" class="cls-6" d="M205,477.19s17.956,17.758,11.225,18.229S205,477.19,205,477.19Z" transform="translate(-120.05 -99)"/>
    <path id="Path_299" data-name="Path 299" class="cls-6" d="M181.65,543s9.118,17.852,5.686,20.946S181.65,543,181.65,543Z" transform="translate(-115.915 -108.408)"/>
    <path id="Path_300" data-name="Path 300" class="cls-6" d="M303.573,562.136c-3.209,3.334,30.448-11.022,22.762-11.69S303.573,562.136,303.573,562.136Z" transform="translate(-137.467 -109.469)"/>
    <path id="Path_301" data-name="Path 301" class="cls-18" d="M385.44,264.272l1.078-.163c3.983-.634,11.844,27.3,24.813,24.37,3.16-.72,12.819-31.767,15.65-32.538,9.933-2.708,16.6-5.631,12.344-8.03-5.629-3.18-8.591-8.956-10.155-13.927-.148-.489,3.779-6.462,3.647-6.934-.691-2.516-8.613-13.262-8.781-15.874,0,0-34.047-8.3-27.02,5.066,3.465,6.556.9,14-2.364,17.741-2.246,2.476-3.394,11.031-6.315,12.564Z" transform="translate(-152.003 -62.074)"/>
    <path id="Path_302" data-name="Path 302" class="cls-6" d="M415.562,259.76S409.884,273.1,402.154,280.5c-2.492.257-3.161-13.842-6.895-16.1-13.241-8.013-36.454,67.837-36.454,67.837l-17.956,46.083s-11.628,10.019,2.847,14.364,46.585-4.345,54.74,8.348,23.593,14.69,25.173,14.69,7.686-47.763,7.686-47.763l1.588-69.129Z" transform="translate(-143.324 -67.916)"/>
    <path id="Path_303" data-name="Path 303" class="cls-19" d="M344.442,389.558c14.475,4.337,46.594-4.345,54.749,8.348a31.6,31.6,0,0,0,13.817,11.6,35.071,35.071,0,0,0,11.381,3.137c.206,0,.51-.857.864-2.391,2.255-9.667,6.822-45.372,6.822-45.372l1.58-69.129-15.232-34.41-2.082-4.7c-2.041,1.418-.628,2.58-2.956,3.386-1.353.477-4.7,21.373-11.373,22.918-4.185.7-2.924-20.3-8.283-23.561-3.884-2.348-11.695,1.671-15.735,10.088-9.743,20.26-18.392,59.607-18.392,59.607L341.628,375.22a15.54,15.54,0,0,0-1.218,1.217C337.859,379.213,333.078,386.147,344.442,389.558Z" transform="translate(-143.461 -67.47)"/>
    <path id="Path_304" data-name="Path 304" class="cls-6" d="M428.811,388.762a91.209,91.209,0,0,0-.428,17.586A214.1,214.1,0,0,0,431.4,431.2a10.122,10.122,0,0,0,.4,1.517c7.826-3.574,14.039-6.188,14.039-6.188l-5.2-19.42c2.255-9.667,6.822-45.372,6.822-45.372l1.58-69.129L433.8,258.219c9.933-2.708,16.6-5.631,12.344-8.03-6.172-3.488-9.143-10.1-10.574-15.358a54.944,54.944,0,0,1-9.093,10.216l-.2.171-1.152,11.656-.354,3.582-.741,7.431s3.53,87.829,6.09,92.843,1.284,14.69-.955,26.045C429.025,387.417,428.943,388.077,428.811,388.762Z" transform="translate(-158.836 -64.352)"/>
    <ellipse id="Ellipse_39" data-name="Ellipse 39" class="cls-20" cx="1.605" cy="1.671" rx="1.605" ry="1.671" transform="translate(271.234 224.009)"/>
    <path id="Path_305" data-name="Path 305" class="cls-21" d="M430.707,382.411c-2.238,11.356-.321,30.056,2.247,44.412s29.822,5.014,34.957,0,20.194-7.345,20.194-7.345.642-65.452,5.456-73.8c2.279-3.96,2.831-16.884,2.773-29.371-.041-11.21-.576-22.069-.773-25.711-.049-.857-.074-1.328-.074-1.328S516.323,252.536,516,249.845s-6.41-3-6.41-3-23.042-18.7-26.934-16.369-14.434-3.668-14.434-3.668-13.405,1.586-16.179-1.114a1.5,1.5,0,0,1-.494-1.226c.313-4.285-20.945-10.911-21.381-11.22,11.784,11.039.018,25.558-2.146,27.426l-.2.171-2.247,22.669s3.53,87.829,6.09,92.843S432.953,371.055,430.707,382.411Z" transform="translate(-159.111 -61.326)"/>
    <ellipse id="Ellipse_40" data-name="Ellipse 40" class="cls-6" cx="1.605" cy="1.671" rx="1.605" ry="1.671" transform="translate(274.443 277.437)"/>
    <path id="Path_10224" data-name="Path 10224" class="cls-22" d="M1.632,0,20.686.02a1.671,1.671,0,0,1,1.634,1.7l.042,45.707a1.663,1.663,0,0,1-1.631,1.7L1.677,49.109a1.671,1.671,0,0,1-1.634-1.7L0,1.7A1.663,1.663,0,0,1,1.632,0Z" transform="translate(281.121 273.372) rotate(-178.69)"/>
    <path id="Path_10225" data-name="Path 10225" class="cls-23" d="M1.632,0,20.686.02a1.671,1.671,0,0,1,1.634,1.7l.042,45.707a1.663,1.663,0,0,1-1.631,1.7L1.677,49.109a1.671,1.671,0,0,1-1.634-1.7L0,1.7A1.663,1.663,0,0,1,1.632,0Z" transform="translate(281.236 274.457) rotate(-178.69)"/>
    <ellipse id="Ellipse_42" data-name="Ellipse 42" class="cls-19" cx="3.506" cy="3.651" rx="3.506" ry="3.651" transform="translate(267.695 235.827)"/>
    <path id="Path_308" data-name="Path 308" class="cls-6" d="M284.52,382.569c8.015,3.677,60.608-6,68.3-8.348s18.927-20.372,13.471-33.424,1.917-25.711,1.917-25.711,11.521-25.711,14.113-30.725,5.637-31.37,6.377-33.813l-1.823-5.8-4.555-4.142-1.907-6.628c-2.09-3.282-2.306,1.831-2.306,1.831l-33.616,23.534,3.209,51.285s-7.406,48.234-15.076,57.584-30.785,9.016-38.48,9.016S284.52,382.569,284.52,382.569Z" transform="translate(-134.131 -64.492)"/>
    <path id="Path_309" data-name="Path 309" class="cls-21" d="M283.74,380.242c8.015,3.668,60.608-6,68.3-8.356s18.927-20.372,13.471-33.425,1.917-25.711,1.917-25.711,11.521-25.711,14.113-30.725,3.959-19.423,4.7-21.866c.06-.555,1.544-6.681,0-12.427s-6.25-5.6-6.176-10.559a3.966,3.966,0,0,0-2.712-3.673s-1.062,1.123-2.8,2.665c-.634.548-3.912,3.145-4.718,3.78-3.022,2.514-8.653,2.485-12.317,3.775-7.694,2.374-22.137,16.142-24.289,22.137S346.9,308.319,346.9,308.319s-7.406,48.234-15.076,57.584-30.777,9.016-38.48,9.016S283.74,380.242,283.74,380.242Z" transform="translate(-133.993 -64.161)"/>
    <path id="Path_312" data-name="Path 312" class="cls-18" d="M362.538,344.843s16.039-3.334,20.523-10.679,35.032-13.713,31.271-6-31.271,32.816-31.271,32.816l-11.94,17.8-15.948-4.217-6.723-13.618Z" transform="translate(-145.452 -77.193)"/>
    <path id="Path_313" data-name="Path 313" class="cls-6" d="M407.785,370.45s-15.528,6-17.865,14.021S407.785,370.45,407.785,370.45Z" transform="translate(-152.763 -83.74)"/>
    <path id="Path_314" data-name="Path 314" class="cls-6" d="M419.356,381.34s1.415,8.339-18.047,7.713Z" transform="translate(-154.813 -85.297)"/>
    <path id="Path_316" data-name="Path 316" class="cls-21" d="M345.089,367.143c1.514,2.348,3.473,3.994,5.983,4.328a43.543,43.543,0,0,0,18.672-1.8s-32.3-10.687-1.2-36.673H360.23l-2.8-1.1,1.267-6.916,2.633-59.972s-9.979,1.845-14.91,5.151-4.815,14.758-4.815,14.758,3.031,16.593,1.739,21.6,1.47,24.875,1.47,24.875-1.284,8.013-3.209,12C340.151,346.428,340.555,360.012,345.089,367.143Z" transform="translate(-146.107 -69.083)"/>
    <path id="Path_317" data-name="Path 317" class="cls-6" d="M347.59,378.978c1.506,2.348,3.473,3.994,5.983,4.328a43.545,43.545,0,0,0,18.672-1.8s-32.3-10.687-1.2-36.69h-8.3l-2.773-1.1C355.334,352.162,348.174,367.151,347.59,378.978Z" transform="translate(-145.3 -79.919)"/>
    <path id="Path_318" data-name="Path 318" class="cls-24" d="M346,378.981c1.514,2.348,3.473,3.994,5.983,4.328a43.545,43.545,0,0,0,18.672-1.8s-32.3-10.687-1.2-36.673h-8.311l-2.8-1.1C353.8,352.165,346.609,367.154,346,378.981Z" transform="translate(-145.018 -79.922)"/>
    <path id="Path_319" data-name="Path 319" class="cls-21" d="M346,378.981c1.514,2.348,3.473,3.994,5.983,4.328a43.545,43.545,0,0,0,18.672-1.8s-32.3-10.687-1.2-36.673h-8.311l-2.8-1.1C353.8,352.165,346.609,367.154,346,378.981Z" transform="translate(-145.018 -79.922)"/>
    <ellipse id="Ellipse_45" data-name="Ellipse 45" class="cls-6" cx="1.605" cy="1.671" rx="1.605" ry="1.671" transform="translate(279.891 302.488)"/>
    <ellipse id="Ellipse_47" data-name="Ellipse 47" class="cls-6" cx="1.605" cy="1.671" rx="1.605" ry="1.671" transform="translate(274.443 330.204)"/>
    <path id="Path_324" data-name="Path 324" class="cls-6" d="M369.912,299.24s-3.53,24.94,0,29.285S369.912,299.24,369.912,299.24Z" transform="translate(-148.975 -73.56)"/>
    <path id="Path_325" data-name="Path 325" class="cls-6" d="M495.675,353.28s6.731,15.11,0,29.594-10.9,20.372-8.657,29.619S495.675,353.28,495.675,353.28Z" transform="translate(-169.882 -81.286)"/>
    <path id="Path_330" data-name="Path 330" class="cls-25" d="M568.44,482.734l-66.1-8.613a2.55,2.55,0,0,1-2.071-1.735,2.711,2.711,0,0,1,.565-2.7l27.724-30a2.462,2.462,0,0,1,2.107-.788l50.535,5.9a2.519,2.519,0,0,1,1.879,1.251,2.726,2.726,0,0,1,.195,2.314l-12.163,32.73a2.524,2.524,0,0,1-2.674,1.645Z" transform="translate(-172.312 -93.523)"/>
    <path id="Path_331" data-name="Path 331" class="cls-6" d="M568.44,482.734l-66.1-8.613a2.55,2.55,0,0,1-2.071-1.735,2.711,2.711,0,0,1,.565-2.7l27.724-30a2.462,2.462,0,0,1,2.107-.788l50.535,5.9a2.519,2.519,0,0,1,1.879,1.251,2.726,2.726,0,0,1,.195,2.314l-12.163,32.73a2.524,2.524,0,0,1-2.674,1.645Z" transform="translate(-172.312 -93.523)"/>
    <path id="Path_332" data-name="Path 332" class="cls-25" d="M567.532,481.826l-66.088-8.648a2.56,2.56,0,0,1-2.069-1.741,2.72,2.72,0,0,1,.563-2.707l27.724-30a2.494,2.494,0,0,1,2.107-.8l50.527,5.9a2.528,2.528,0,0,1,1.884,1.254,2.736,2.736,0,0,1,.2,2.32l-12.171,32.73A2.535,2.535,0,0,1,567.532,481.826Z" transform="translate(-172.153 -93.386)"/>
    <path id="Path_333" data-name="Path 333" class="cls-22" d="M533.341,449.458l19.849,1.663L581.5,449.2h-.486l-26.226-2.64c-6.007-2.3-1.843-15.821-1.843-15.821L532.855,431.8l-1.6.086C524.149,449.2,533.341,449.458,533.341,449.458Z" transform="translate(-177.346 -92.359)"/>
    <path id="Path_334" data-name="Path 334" class="cls-6" d="M533.341,449.636l19.849,1.663,28.308-1.92h-.486l-28.621,1.063-19.174-2.168c-5.448-1.491-2.329-11.33-.362-16.284l-1.6.086C524.149,449.379,533.341,449.636,533.341,449.636Z" transform="translate(-177.346 -92.538)"/>
    <path id="Path_335" data-name="Path 335" class="cls-26" d="M492.112,308.047l6.073,90.717.823,11.9a5.024,5.024,0,0,0,4.987,4.808h1.843l91.426-.574a2.532,2.532,0,0,0,1.887-.89,2.753,2.753,0,0,0,.647-2.05l-.823-11.913-6.435-79.773a5.439,5.439,0,0,0-3.514-4.628l-87.139-13.61c-2.962-1.071-5.983-.694-7.867.943A5.883,5.883,0,0,0,492.112,308.047Z" transform="translate(-170.886 -73.874)"/>
    <path id="Path_336" data-name="Path 336" class="cls-23" d="M499.5,415l.823,11.9a5.024,5.024,0,0,0,4.987,4.808h1.843l91.426-.574a2.532,2.532,0,0,0,1.887-.89,2.755,2.755,0,0,0,.647-2.05l-.823-11.913Z" transform="translate(-172.201 -90.109)"/>
    <ellipse id="Ellipse_49" data-name="Ellipse 49" class="cls-19" cx="1.226" cy="2.554" rx="1.226" ry="2.554" transform="translate(387.364 332.21)"/>
    <path id="Path_337" data-name="Path 337" class="cls-22" d="M562.8,465.248s-25-9.83-31.74-2.683c0,0-1.1,2.177,3.432,2.683l18.318,1.534S560.352,467.545,562.8,465.248Z" transform="translate(-177.769 -96.537)"/>
    <path id="Path_338" data-name="Path 338" class="cls-23" d="M562.576,462.441c-4.937-2.091-19.692-7.5-29.156-1.517,0,0,10.467-1.208,16.22,2.254s13.6,1.817,13.6,1.817l.115-.214a1.715,1.715,0,0,0,.115-1.353A1.627,1.627,0,0,0,562.576,462.441Z" transform="translate(-178.207 -96.284)"/>
    <path id="Path_339" data-name="Path 339" class="cls-23" d="M492.112,308.308l6.863,102.639a5.024,5.024,0,0,0,4.987,4.808h1.843a18.214,18.214,0,0,1-3.193-4.285s-6.74-103.136-7.233-105.69a5.288,5.288,0,0,0-1.358-2.52,5.883,5.883,0,0,0-1.909,5.048Z" transform="translate(-170.886 -74.134)"/>
    <path id="Path_340" data-name="Path 340" class="cls-6" d="M492.112,308.308l6.863,102.639a5.024,5.024,0,0,0,4.987,4.808h1.843a18.214,18.214,0,0,1-3.193-4.285s-6.74-103.136-7.233-105.69a5.288,5.288,0,0,0-1.358-2.52,5.883,5.883,0,0,0-1.909,5.048Z" transform="translate(-170.886 -74.134)"/>
    <path id="Path_341" data-name="Path 341" class="cls-6" d="M469.259,336.786c7.406-1.714,24.687-6.993,24.687-6.993l3.094-.651c-.041-11.21-.576-22.069-.774-25.711h-.074s-14.755,5.014-18.277,7.713-14.434,2-14.434,2-16.985.951-31.082,17.346S461.885,338.474,469.259,336.786Z" transform="translate(-159.825 -74.159)"/>
    <path id="Path_342" data-name="Path 342" class="cls-18" d="M541.331,306.034A4.452,4.452,0,0,1,543.8,309.5a4.562,4.562,0,0,1-1.5,4.022c-3.909,3.368-9.612,7.4-15.059,7.962-9.052.951-30.942,5.519-33.114,6a2.541,2.541,0,0,0-.346.086c-1.8.549-17.569,5.357-24.523,6.942-7.406,1.714-51.021,10.036-36.875-6.325,12.986-15.067,28.415-17.141,30.794-17.338a3.156,3.156,0,0,1,.568,0c1.646.077,10.961.411,14.179-2.014a29.835,29.835,0,0,1,5.3-2.751,98.316,98.316,0,0,1,21.684-6.514l15.084-2.743a4.173,4.173,0,0,1,2.535.343Z" transform="translate(-159.818 -73.206)"/>
    <path id="Path_343" data-name="Path 343" class="cls-21" d="M521.992,256.528l7.052-.668s7.7,6,13.471,6,9.3,7.713,9.3,7.713,9.62,4.679,12.829,5.348,8.657,4,7.052,5.339.321,4.345,3.209,6.676,7.406,14.364,3.522,16.035-14.426,5.005-17.281,6.676-6.411,0-6.411,0-17.026-22.02-25.692-17.674-22.56,3.991-22.56,3.991L499.23,274.9Z" transform="translate(-172.153 -67.358)"/>
    <g id="Group_5894" data-name="Group 5894" transform="translate(7.277)">
      <path id="Path_10227" data-name="Path 10227" class="cls-27" d="M12.805,25.429C10.4,28.937,7.4,30.8,4.934,25.979,2.92,22.119-2.7,7.416,1.7,3.922s7.911-7.383,9.739,1.925S15.65,20.962,12.805,25.429Z" transform="translate(219.944 117.373) rotate(4)"/>
      <path id="Path_10226" data-name="Path 10226" class="cls-18" d="M-1.094,6.708,46.47.167S53.353,8.75,49.358,25.25c-.9,3.721-1.981,12.873-1.981,12.873s-3.014,12.353-9.815,20.694c-3.007,3.691-11.06,5.931-14.309,4.848C13.32,60.354,11.961,55.87,7.363,48.434,2.565,40.676-.3,26.912-.3,26.912Z" transform="translate(224.065 109.295)"/>
      <path id="Path_46" data-name="Path 46" class="cls-27" d="M3.338,38.178c2.96,3.228,6.2,4.216,10.984,1.9,1.9-.922,12.144-3.378,14.463-3.55,2.06-.153,12.131.081,14.615-.49a16.465,16.465,0,0,1,9.188.321L55.1,43.512s2.884,11.839,5.309-1.827c4.054,5.611,3.5,7.677,6.124,2.343.644-7.438,3.9-22.557,2.016-23.924a30.675,30.675,0,0,1-3.025-2.472s.912-4.4-8.621-8.11a17.5,17.5,0,0,0-1.888-1.249C53.211,7.736,48.9.952,46.492.52c-4.059-.729-6.267-1.2-11.173.438-3.909,1.3-5.957,1.881-9.145,3.822-1.767,1.074-6.423,3.695-7.356,4.831-2.857,3.479-7.038-.133-8.8,3.062-.967,1.758-2.47.9-4.74,4.034A27.262,27.262,0,0,0,1.13,26.76C.33,31.228,2.847,37.643,3.338,38.178Z" transform="translate(209.595 86.319) rotate(-2)"/>
      <path id="Path_10228" data-name="Path 10228" class="cls-18" d="M4.795.074C7.443.115,9.652,4.6,9.73,10.08s-2.007,9.9-4.655,9.858S.217,15.417.14,9.932,2.147.033,4.795.074Z" transform="translate(276.874 143.244) rotate(-171.223)"/>
    </g>
  </g>
</svg>
