<svg xmlns="http://www.w3.org/2000/svg" xmlns:xlink="http://www.w3.org/1999/xlink" viewBox="0 0 345.666 748.313"><defs><style>.a{opacity:0.32;}.b{fill:url(#a);}.c{fill:url(#c);}.d{fill:url(#d);}.e{fill:#fff;}.f{fill:url(#e);}.g{fill:url(#f);}.h{fill:url(#g);}.i{clip-path:url(#o);}</style><linearGradient id="a" x1="1.668" y1="-0.476" x2="1.459" y2="2.545" gradientUnits="objectBoundingBox"><stop offset="0" stop-color="#00b2b2"/><stop offset="1" stop-color="#0006b2"/></linearGradient><linearGradient id="c" x1="0.147" y1="-0.096" x2="0.843" y2="1.162" gradientUnits="objectBoundingBox"><stop offset="0" stop-color="#dff7fe"/><stop offset="1" stop-color="#384770"/></linearGradient><linearGradient id="d" x1="0.5" x2="0.5" y2="1" gradientUnits="objectBoundingBox"><stop offset="0" stop-color="#fcb455"/><stop offset="1" stop-color="#f9dfbc"/></linearGradient><linearGradient id="e" x1="0.5" x2="0.5" y2="1" gradientUnits="objectBoundingBox"><stop offset="0" stop-color="#00b2b2"/><stop offset="1" stop-color="#559dfc"/></linearGradient><linearGradient id="f" x1="0.473" y1="0.392" x2="0.736" y2="2.13" gradientUnits="objectBoundingBox"><stop offset="0" stop-color="#000547"/><stop offset="1" stop-color="#000547"/></linearGradient><linearGradient id="g" x1="0.722" y1="0.185" x2="0" y2="0.756" gradientUnits="objectBoundingBox"><stop offset="0" stop-color="#000547"/><stop offset="1" stop-color="#040036"/></linearGradient><clipPath id="o"><path d="M199.977,147.462c5.635-5.056,16.343,13.65,23.669,27.3,1.127-5.056,2.818-9.1,6.2-8.595s1.691,16.684,1.127,19.212a8.756,8.756,0,0,1-1.127,4.045v.506c10.144,11.122,49.592,41.457,57.482,53.085,14.652-4.045,41.139-12.639,74.388-21.739q1.691-.758,5.072,0c8.453-2.528,18.6-3.539,24.233-4.045v-5.561c-3.43-.362-13.979-17.746-13.979-17.746s-7.436-12.082-8-21.182a23.388,23.388,0,0,1-1.691-3.539c-1.691-5.056-4.508-21.739,1.127-27.806-10.707-5.561-8.453-25.278,8.453-26.8,10.144,0,2.818,2.022,11.271,5.056,3.945,1.517,49.592,3.033,42.266,14.156,3.381.506,6.2,3.033,7.89,9.1,2.818,8.595,3.945,14.156,2.254,18.706H442.3c3.945,1.517,4.508,7.583,1.691,14.156-2.254,5.056-7.017,9.025-10.4,9.53-.6,3.758-8.468,8.619-8.468,8.619s-.013-.054.269,6.118,1.127,11.628,1.127,17.695a97.861,97.861,0,0,1,12.962,2.022,64.974,64.974,0,0,1,10.707,2.528,18.219,18.219,0,0,1,7.89,3.539,34.951,34.951,0,0,1,11.835,11.628,273.964,273.964,0,0,1,18.6,23.762c23.669,32.862,29.3,48.029,30.432,55.107v1.517c0,1.011,0,2.022-.564,2.528-9.017,18.2-12.961,25.278-37.194,47.523-11.271,10.617-17.47,16.684-23.105,20.728.564,3.539-2.254,5.561-6.2,7.078a6.89,6.89,0,0,1-4.508,0c0,8.089,0,15.673.564,22.245a194.287,194.287,0,0,1,4.508,39.434c2.254,16.178,11.271,134.481,14.652,156.22a4.163,4.163,0,0,0,.563,2.528h0c18.6,37.412,16.906,156.726,16.343,180.487,0,1.011-.564,2.022-1.127,2.022a12.633,12.633,0,0,1,.564,4.55c0,3.034.564,6.572,3.381,15.673s-7.89,10.111-25.923,9.606c-16.906-.506-12.4-6.067-10.144-10.111,2.254-3.539,6.763-5.056,7.326-9.1.564-3.033,0-4.55,1.127-8.595h0c-3.945-32.356-27.05-132.964-36.63-168.354a28.135,28.135,0,0,1-1.127-9.1c-11.834-36.906-30.432-99.091-34.94-126.392-6.2,30.334-19.724,98.08-29.3,129.931,12.962,44.49-11.271,135.492-12.962,187.565h0v1.011c1.127,10.111,1.127,10.617-9.017,10.617-7.89,0-14.089,0-20.851,1.011s-19.724,3.033-30.431-.506,9.017-5.056,18.6-8.595,16.343-9.1,17.47-11.628c.564-.506,1.127-1.517,1.691-2.022.564-69.768-7.89-139.031-9.58-174.926V612.583c1.691-16.178,4.508-85.946,6.763-127.4h0a547.546,547.546,0,0,1,4.508-68.251s.564-89.485,7.326-148.637c-35.5,6.572-51.846,6.067-59.172,5.056a8.306,8.306,0,0,1-6.763-2.022c-10.707-10.617-21.415-23.762-37.758-49.04-9.017-14.156-11.835-21.234-11.835-27.806-7.326-1.517-16.343-7.584-19.161-17.189C194.9,174.257,190.96,155.551,199.977,147.462Zm281.21,168.354c-3.945-4.55-9.58-11.122-16.343-18.706-6.763,25.278-11.835,52.073-14.089,75.835C459.772,355.25,473.3,324.916,481.186,315.816Z" transform="translate(-194.2 -114.6)"/></clipPath></defs><g transform="translate(-1406.926 -104.745)"><g transform="translate(1394.864 104.745)"><ellipse class="a" cx="146.633" cy="23.952" rx="146.633" ry="23.952" transform="translate(64.461 700.409)"/><g transform="translate(0 0)"><path class="b" d="M211.229,255.1c-1.691,5.042-1.127,7.059-1.691,10.085-.564,4.034-2.422,6.051-4.677,9.581C202.044,278.3,200,290.9,217.468,291.4c18.033.5,23.63-8.063,20.812-16.635s-3.945-12.606-3.381-15.632c0-3.025,0-6.051-2.254-7.564S214.047,246.024,211.229,255.1Z" transform="translate(75.357 432.989)"/><path class="b" d="M109.336,659.542c8.005,5.645,20.145,2.954,20.145,2.954s18.33-9.138,23.757-9.138,15.708-1.881,17.123-6.613-3.575-11.869-3.724-20.946c0,0-11.844-.931-15.866-1.707l-6.532,1.707c-1.292,3.423-21.49,19.2-26.4,19.2-2.339,0-6.2,2.015-8.741,4.734C106.334,652.751,105.148,656.588,109.336,659.542Z" transform="translate(6.372 65.299)"/><path class="c" d="M18.514,387.885c-4.849.5-6.577,1.49-6.577,1.49C13.149,319.285,2.147,251.236.329,214.931a39.213,39.213,0,0,1-.019-3.965,66.3,66.3,0,0,1,.037-13.18C2.088,175.6,7.892,52.061,9.053,40.463c.762-7.952,2.825-21.292,6.126-30.079L17.321.451l7.637.336a34.311,34.311,0,0,1,17.526.771l95.57,4.2a183.838,183.838,0,0,1,4.59,38.081C145.1,64.7,154.622,177.13,158.088,198.291a58.477,58.477,0,0,1,.832,14.924C172.793,259,171.343,360.176,170.831,381.826c0,3.026-2.246,2.522-3.929,2.017-5.613-2.017-10.665-2.521-12.91-2.017a11.239,11.239,0,0,0-6.736,5.043c-4.49-32.776-27.5-133.12-37.047-168.416a38.158,38.158,0,0,1-1.531-12.1C97.7,174.749,81.768,125.068,74.533,95.147c-6.854,32.218-18.1,84.468-26.734,113.1q.218.558.419,1.133c15.762,43.365-10.482,134.475-12.3,187.42C29.248,387.728,21.545,387.381,18.514,387.885Z" transform="translate(138.674 302.238)"/><path class="d" d="M244,128.9c0,1.222,2.818,27.491,3.381,47.651,0,9.774-9.017,18.938-18.033,19.549,0,0-18.034,5.79-18.6,5.79-9.017,0-4.8-14.207-4.24-23.982,1.691-17.716,4.24-35.567,4.24-35.567Z" transform="translate(1.476 -55.968)"/><path class="e" d="M29.438,27.612c.2.047,14.364-10.1,17.942-13.707,0,0,9.058-9.107,9.28-9.353,1.841-1.84,7.453-7,9.28-6.611S69.5,8.1,69.5,8.1l-.372,204.832s-8.995,1.946-31.263,0C30.6,212.3,13.834,207.5,6.6,207.19c-14.151-.608-32.622-3.377-32.622-3.377L-13.428,80.75,8.751,6.527l3.827-1.975a27.305,27.305,0,0,0,5.568-1.29c2.4-.841,5.089-4.084,6.342-3.548,1.052.45.576,6.094,0,10.8C23.8,16.144,24.561,23.679,29.438,27.612Z" transform="translate(184.89 102.774)"/><path class="f" d="M232.289,155.792c-7.326,3.025-10.943-1.685-13.761-9.753-2.254-6.555-5.4-24.536,5.871-26.048s20.288-2.017,19.161,12.1S241.305,152.262,232.289,155.792Z" transform="translate(-30.205 -94.961)"/><path class="g" d="M295.336,232.111c-1.256-7.156-7.538-22.49-33.922-55.713-16.333-20.445-17.538-23.991-23.82-29.613-10.679-10.223-28.7-8.16-33.1-2.026-6.282,9.711-12.183,23.973-7.157,29.6,29.525,31.179,54.025,54.18,59.678,62.869C265.183,249.49,297.221,240.8,295.336,232.111Z" transform="translate(54.87 -25.285)"/><path class="h" d="M108.062,216.861c0-22.383,12.525-18.814,10.9-61.421-1.175-30.817-2.649-40.834-1.93-53.849-26.11,6.054-42.434,7.822-52.694,7.821a52.229,52.229,0,0,1-11.425-1.038c-2.265-.422-3.932-2.51-4.955-5.484C37.828,90.728,27.418,75.349,11.977,47.209.143,25.169-.42,18.02.143,7.3.706-1.042,8.6-2.234,11.977,3.723c4.955,9.311,49.173,48.756,59.093,65.012C82.818,63.669,100.816,54.58,130.663,45.2c.842-.275,27.591-2.049,27.591-2.049v.092c1.96-.021,3.737.427,6.88.523-.032,0,0,6.611,0,6.611s-5.72,7.456-5.97,21.074c-.162,8.878-7.709,42.283-7.7,53.85.005,5.707-16.333,94.789-24.222,118.463-2.115,6.349-4.476,8.968-6.8,8.968C114.109,252.733,108.062,233.241,108.062,216.861Z" transform="translate(34.809 62.789)"/><path class="d" d="M274.251,162.269c-2.254,18.657-3.867,18.14-9.126,28.286-4.617,3.873-13.837,9.894-19.179,13.221-2.518,1.569-9.884,4.081-18.183-2.461s-8.675-11.739-14.939-25.61c-3.221-7.132-3.079-21.962,0-32.013s12.8-27.092,27.45-27.092S279.324,117.392,274.251,162.269Z" transform="translate(-18.466 -105.689)"/><path class="f" d="M74.407,62.833c-.018-.02-2.251-9.109-2.47-9.369-2.218-2.532-6.1-9.462-7.968-16.208-4.479.973-14.993,1.027-27.268,1.2-13.6.191-21.844-.284-25.9-1.546C5.864,35.373,3.191,25.583,3.191,22.672S6.106,15.1,7.562,12.634c.733-1.244,1.427-.742,2.411-.241a3.525,3.525,0,0,0,3.255.241C17.568,10.8,24.373,4.75,27.365,3.8a16.614,16.614,0,0,1,6.2-.719,27.346,27.346,0,0,0,8.44-.918C48.89.4,45.63,1,51.252.341,69.492-1.792,71.1,6.663,77.061,9.256,81.707,11.273,87.3,19.6,86.2,26.8c.582,3.73-1.038,7.293-.9,10.744.288,7.232.8,13.12-3.794,17.234-4.281,3.831-2.9,10.273-4.462,10.274C76.549,65.053,75.761,64.409,74.407,62.833Z" transform="translate(176.37)"/><path class="d" d="M7.724-.014c3.985-.149,6.983,5.469,6.7,12.548s-3.75,12.939-7.735,13.088S-.3,20.153-.011,13.074,3.739.135,7.724-.014Z" transform="matrix(-0.926, -0.378, 0.378, -0.926, 260.237, 74.789)"/><g transform="translate(0 27.277) rotate(-13)"><path class="d" d="M39.308,46.025C36.854,39.978,14.761-7.292,6.155.959-3.68,9.761.61,30.1,3.064,36.7,7.358,48.791,20.257,55.931,28.858,55.927,35,55.373,41.763,52.071,39.308,46.025Z" transform="matrix(0.951, 0.309, -0.309, 0.951, 17.387, 0.023)"/><path class="d" d="M9.934,20.96C10.55,18.211,12.4.616,8.717.069,3.188-1.028,1.338,10.518.106,18.216c-.617,3.849,1.223,9.9,5.524,9.893S9.318,25.359,9.934,20.96Z" transform="matrix(0.951, 0.309, -0.309, 0.951, 39.767, 30.181)"/></g><path class="h" d="M140.141,43.084c-6.178,18.488-6.153,47.016-10.858,71.438s7.734,73.944,4.485,80.093-36.048,47.4-45.8,13.787-6.891-26.256-6.891-81.623c0,0-2.047-57.975,4.978-89.69C89.34,22.246,97.729,15.462,102.059,9.684c4.545-6.07,5.269-10.135,7.424-9.838C142.732,5.9,149.721,14.847,140.141,43.084Z" transform="translate(145.06 109.632)"/><path class="g" d="M203.186,238.532c9.58-2.521,15.216-8.572,31.559-24.2,23.669-22.187,28.177-29.246,37.194-47.4,6.2-12.1-25.923-20.674-38.321-7.059-10.707,11.6-31.559,62.526-37.758,69.585C191.352,233.994,195.3,240.549,203.186,238.532Z" transform="translate(77.711 46.139)"/></g></g><path class="d" d="M235.2,181.505c-4.508-4.538-12.4-12.1-15.779-16.136-3.945-4.034-14.652,3.025-14.652,6.555-.564,5.547,5.635,20.17,13.525,20.17s9.58,6.051,16.343,4.538C240.275,194.111,243.093,189.069,235.2,181.505Z" transform="translate(1440.478 193.313)"/></g></svg>