<svg xmlns="http://www.w3.org/2000/svg" xmlns:xlink="http://www.w3.org/1999/xlink" viewBox="0 0 191.021 227.385"><defs><style>.a{fill:url(#a);}.b{fill:url(#b);}.c{fill:#fff;}.d{fill:url(#d);}.e{fill:url(#f);}.f{fill:url(#g);}.g{fill:url(#h);}.h{opacity:0.1;}.i{fill:url(#l);}</style><linearGradient id="a" x1="0.926" y1="1.575" x2="0.45" y2="0.098" gradientUnits="objectBoundingBox"><stop offset="0" stop-color="#084b8d"/><stop offset="1" stop-color="#054dcc"/></linearGradient><linearGradient id="b" x1="0.5" x2="0.5" y2="1" gradientUnits="objectBoundingBox"><stop offset="0" stop-color="#f9dfbc"/><stop offset="1" stop-color="#fcb455"/></linearGradient><linearGradient id="d" x1="0.5" x2="0.5" y2="1" gradientUnits="objectBoundingBox"><stop offset="0" stop-color="#000547"/><stop offset="1" stop-color="#040036"/></linearGradient><linearGradient id="f" x1="0.926" y1="1.575" x2="-0.238" y2="-0.368" gradientUnits="objectBoundingBox"><stop offset="0" stop-color="#0080ff"/><stop offset="1" stop-color="#005dff"/></linearGradient><linearGradient id="g" x1="0.5" x2="0.5" y2="1" gradientUnits="objectBoundingBox"><stop offset="0" stop-color="#75a1ae"/><stop offset="1" stop-color="#4a5b61"/></linearGradient><linearGradient id="h" x1="0.5" x2="0.5" y2="1" gradientUnits="objectBoundingBox"><stop offset="0" stop-color="#dff7fe"/><stop offset="1" stop-color="#5a6d74"/></linearGradient><linearGradient id="l" x1="0.5" x2="0.5" y2="1" gradientUnits="objectBoundingBox"><stop offset="0" stop-color="#005dff"/><stop offset="1" stop-color="#559dfc"/></linearGradient></defs><g transform="translate(-1272.017 -3886.199)"><path class="a" d="M848.647,579.532s6.018-.159,5.321,4.026c-.894,5.366-3.506,9.159-3.506,11.842s-7.6,8.5-8.943,7.155,2.236-6.707,1.342-9.838a99.708,99.708,0,0,1-1.789-10.285Z" transform="translate(966.843 3127.802) rotate(34)"/><g transform="translate(-2863.897 -8165.544) rotate(31)"><path class="b" d="M812.667,173.411a53.229,53.229,0,0,1,1.958-7.3c.849-2.321,1.922-4.3,3.118-4.3,2.9,0-10.153-12.328-10.153-12.328s-.819,1.523-2.176,3.575a50.583,50.583,0,0,1-3.249,4.424,24.252,24.252,0,0,1-5.453,5.055C790.911,166.159,812.667,173.411,812.667,173.411Z" transform="translate(9085.098 7984.098)"/><path class="b" d="M909.438,302.834s29.08,18.374,20.12,21.393-23.8-18.567-23.8-18.567Z" transform="translate(9026.731 7902.746)"/><path class="c" d="M3507.021,5230.813c2.442,1,4.322,1.847,4.509,2.287s-4.576,6.88-5.66,7.575-3.648-3.454-3.648-3.454Z" transform="translate(6432.351 2976.454)"/><path class="d" d="M813.669,213.4s13.928,10.156,18,17.882S856.9,256.171,856.9,256.171s-4.369,8.633-6.481,8.112-45.661-32.918-50.242-35.542S802.577,209.914,813.669,213.4Z" transform="translate(9083.496 7950.451)"/><path class="b" d="M915.022,252.964s32.633,10.878,24.656,15.954-27.557-12.328-27.557-12.328Z" transform="translate(9023.354 7929.202)"/><path class="e" d="M850.576,581.179s6.9.862,6.017,6.185c-1.137,6.824-3.58,8.935-3.58,12.347s-9.667,10.8-11.373,9.1,2.843-8.53,1.706-12.51a126.814,126.814,0,0,1-2.275-13.079Z" transform="translate(9092.969 7713.69) rotate(3)"/><path class="c" d="M3507.922,5231.7c2.093.921,4.123,1.778,4.283,2.183s-4.9,6.126-5.829,6.767-3.394-2.754-3.394-2.754Z" transform="matrix(0.966, -0.259, 0.259, 0.966, 5198.991, 4037.553)"/><path class="f" d="M796.162,470.744l35.287,46.168a7.429,7.429,0,0,1-2.621,3.063l-3.824,2.3S793.987,483.8,796.162,470.744Z" transform="translate(9084.924 7813.673)"/><path class="g" d="M740.9,312.924s10.878,10.878,7.977,31.908,2.176,41.336,7.977,47.862S781.6,440.537,781.6,440.537a7.89,7.89,0,0,1-2.01,5.317c-2.26,2.757-6.41,3.851-6.41,3.851l-36.633-49.034s-21.756-42.785-23.931-54.389-2.9-29.733,2.9-33.359S740.9,312.924,740.9,312.924Z" transform="translate(9130.037 7898.249)"/><path class="h" d="M812.961,152.888c8.47,1.755,7.629,2.1,12.836,3.923.029-.087.058-.16.087-.232.8-1.9,1.3.595,2.451.595,2.9,0-10.153-12.328-10.153-12.328s-.493.914-1.342,2.284c-.254.4-.529.834-.834,1.291-.254.384-.529.79-.819,1.211Z" transform="translate(9075.957 7986.556)"/><path class="b" d="M16.01.557c7.61,0,11.548,5.611,11.548,13.221A13.779,13.779,0,0,1,13.779,27.557c-4.277,0-7.265-2.95-10.537-6.228C1.075,19.167-2.572,19.2-1.74,14.654A16.738,16.738,0,0,1,4.152,5.131C6.44,3.229,13.163.557,16.01.557Z" transform="translate(9890.514 8121.975)"/><path class="d" d="M750.678,175.737s21.03,2.176,25.382,11.6-26.832,55.114-29.007,55.839-32.633,4.351-32.633,4.351,1.45-46.412,29.733-63.816C744.152,183.714,750.678,180.813,750.678,175.737Z" transform="translate(9128.231 7970.169)"/><path class="d" d="M803,186.524s15.954,6.527,21.756,13.053,30.458,18.13,30.458,18.13-2.176,9.427-4.351,9.427-52.213-21.031-57.29-22.481S791.393,185.8,803,186.524Z" transform="translate(9087.518 7964.458)"/><path class="i" d="M838.472,135.328s3.626-3.626-3.626-6.527c0,0,7.252-2.9,8.7-7.252s6.527-11.6,10.878,0,12.328,26.832-13.779,26.832c0,0-6.527,1.45-6.527-4.351a10.878,10.878,0,0,1,4.351-8.7Z" transform="translate(9064.731 8002.238)"/></g></g></svg>