<svg xmlns="http://www.w3.org/2000/svg" viewBox="0 0 952.018 616.915"><defs><style>.a{fill:none;stroke:#d4d4d4;stroke-miterlimit:10;stroke-width:2px;}</style></defs><g transform="translate(-312.055 -225.114)"><g transform="translate(313.08 226.322)"><path class="a" d="M749.9,256.8q22.64,12.037,44.262,24.634" transform="translate(-174.833 -120.917)"/><path class="a" d="M521.327,216.817c19.784,2.45,40.38,5.99,61.6,10.612" transform="translate(-288.742 -141.271)"/><g transform="translate(294.188 86.158)"><path class="a" d="M562.441,223.849c65.836,14.338,137.712,39.09,210.121,74.022a1003.413,1003.413,0,0,1,149.988,88.662" transform="translate(-562.441 -223.849)"/><path class="a" d="M802.78,331.65a747.536,747.536,0,0,1,86.333,72.07" transform="translate(-442.67 -168.966)"/><path class="a" d="M779.444,273.12q40.866,23.8,77.763,49.227" transform="translate(-454.3 -198.764)"/></g><path class="a" d="M405.076,426.077C368.525,372.2,355.969,321.3,374.748,281.814c20.771-43.675,76.369-66.016,151.734-67.662" transform="translate(-366.099 -142.627)"/><path class="a" d="M869.444,368.245s116.13,131.1,83.5,198.315-211.02,63.631-211.02,63.631" transform="translate(-80.735 -15.538)"/><path class="a" d="M378.605,175.145c60.671-13.128,139.182-10.794,226.988,6.639" transform="translate(-359.866 -166.757)"/><path class="a" d="M967.943,434.314c27.161,39.961,43.866,78.631,48.232,113.848" transform="translate(-66.175 -30.54)"/><path class="a" d="M915.013,643.957c-75.019-12.453-159.886-39.523-245.5-80.825C572.039,516.105,489.439,458.271,430.583,399.82" transform="translate(-333.964 -48.101)"/><path class="a" d="M610.849,563.518C543.736,528.5,482.976,489.563,430.581,449.026" transform="translate(-333.965 -23.05)"/></g></g></svg>