<svg xmlns="http://www.w3.org/2000/svg" viewBox="0 0 242.871 212.674">
  <defs>
    <style>
      .cls-1 {
        fill: #53c1de;
      }
    </style>
  </defs>
  <g id="Group_5932" data-name="Group 5932" transform="matrix(0.998, -0.07, 0.07, 0.998, -1202.676, -619.487)">
    <path id="Exclusion_1" data-name="Exclusion 1" class="cls-1" d="M168.214,208.53h0a37.112,37.112,0,0,1-9.359-1.306A59.212,59.212,0,0,1,148.6,203.4a88.72,88.72,0,0,1-10.862-6.194,122.1,122.1,0,0,1-11.192-8.426c-2.2-1.858-4.373-3.8-6.464-5.778-1.837,1.722-3.475,3.2-5,4.507a123.129,123.129,0,0,1-11.712,8.913,92.355,92.355,0,0,1-11.473,6.568,62.749,62.749,0,0,1-10.874,4.061,39.23,39.23,0,0,1-9.917,1.39,22.918,22.918,0,0,1-11.421-2.753,21.583,21.583,0,0,1-7.722-7.669,37.135,37.135,0,0,1-4.489-11.957,68.527,68.527,0,0,1-1.219-15.481,111.258,111.258,0,0,1,2.088-18.24c.547-2.8,1.179-5.615,1.879-8.365-2.165-.609-4.341-1.277-6.468-1.984C30.7,137.624,19.711,131.8,11.981,125.166A40.511,40.511,0,0,1,3.126,114.88,21.633,21.633,0,0,1,0,104.069,21.039,21.039,0,0,1,2.923,93.682,37.8,37.8,0,0,1,11.254,83.9a71.361,71.361,0,0,1,13.08-8.768,116.722,116.722,0,0,1,17.171-7.332c2.764-.945,5.743-1.864,8.855-2.73C49.7,62.5,49.1,59.89,48.593,57.3a115.547,115.547,0,0,1-2.265-18.582A70.843,70.843,0,0,1,47.4,22.93a37.712,37.712,0,0,1,4.4-12.191A21.279,21.279,0,0,1,59.508,2.96,22.554,22.554,0,0,1,70.762.228,38.489,38.489,0,0,1,80.828,1.694,63.219,63.219,0,0,1,91.913,5.977,96.012,96.012,0,0,1,103.675,12.9a132.093,132.093,0,0,1,12.1,9.394c1.341,1.17,2.675,2.377,3.965,3.587,1.928-1.822,3.933-3.624,5.956-5.355a126.771,126.771,0,0,1,11.462-8.736,91.575,91.575,0,0,1,11.119-6.442,60.282,60.282,0,0,1,10.475-3.985A36.975,36.975,0,0,1,168.279,0a21.935,21.935,0,0,1,10.927,2.654,21.9,21.9,0,0,1,8.03,8.173,39.668,39.668,0,0,1,4.537,12.892c1.864,10.035,1.322,22.6-1.567,36.345-.367,1.723-.767,3.455-1.19,5.148,2.572.725,5.162,1.524,7.7,2.376h.011a121.8,121.8,0,0,1,17.549,7.392A73.954,73.954,0,0,1,227.688,83.8a38.427,38.427,0,0,1,8.567,9.836,20.741,20.741,0,0,1,3.013,10.43,21.365,21.365,0,0,1-3.217,10.9,40.463,40.463,0,0,1-9.135,10.291c-7.943,6.595-19.328,12.412-32.923,16.824-1.443.468-2.941.926-4.45,1.361.544,2.118,1.027,4.226,1.436,6.264,2.678,13.257,3.041,25.486,1.048,35.365a39.774,39.774,0,0,1-4.651,12.661,21.011,21.011,0,0,1-19.162,10.8Zm11.439-62.565h0c-5.312,1.175-10.734,2.183-16.116,3s-10.863,1.456-16.289,1.906c-3.039,4.354-6.268,8.662-9.6,12.8s-6.849,8.228-10.457,12.141c2.007,1.891,4.032,3.7,6.017,5.374a111.973,111.973,0,0,0,9.985,7.539,80.81,80.81,0,0,0,9.369,5.425c5.886,2.865,11.274,4.379,15.584,4.379a12.311,12.311,0,0,0,6.118-1.4,12.862,12.862,0,0,0,4.709-5.207,31.981,31.981,0,0,0,3.121-9.343c1.609-8.532,1.21-19.226-1.155-30.926l.007-.03c-.375-1.831-.812-3.735-1.3-5.657Zm-119.525.464c-.647,2.569-1.233,5.186-1.744,7.78-2.057,10.6-2.484,20.31-1.234,28.077A31.257,31.257,0,0,0,60,191.631a12.6,12.6,0,0,0,4.786,5.385,12.79,12.79,0,0,0,6.32,1.408A32.606,32.606,0,0,0,81.568,196.4c8.374-2.909,17.635-8.589,26.784-16.425,1.547-1.328,3.08-2.712,4.558-4.115-3.681-3.9-7.277-7.97-10.687-12.1S95.5,155.344,92.371,151c-5.4-.4-10.847-.993-16.2-1.753S65.418,147.542,60.128,146.43Zm45.51,5.348h0a216.543,216.543,0,0,0,14.391,16.873,214.544,214.544,0,0,0,14.048-16.922c-4.738.211-9.6.317-14.441.317-4.728,0-9.437-.09-14-.268ZM119.628,66.5c-7.271,0-14.6.27-21.787.8-4.084,5.865-7.987,11.956-11.6,18.1s-7.04,12.505-10.175,18.9c3.12,6.361,6.554,12.715,10.206,18.888s7.587,12.282,11.7,18.167c6.98.445,14.269.671,21.664.671s14.774-.254,21.91-.754c4.008-5.9,7.87-12,11.476-18.141l.011-.015c3.642-6.175,7.1-12.558,10.283-18.97C160.1,97.788,156.628,91.459,153,85.343s-7.512-12.185-11.55-18.031C134.239,66.776,126.9,66.5,119.628,66.5ZM70.661,116.081h0c-3.03,7.036-5.64,14-7.758,20.69a222.54,222.54,0,0,0,22.033,3.473h0c-2.589-3.936-5.111-7.984-7.5-12.034-2.348-3.977-4.629-8.057-6.78-12.129Zm98.146-.359h0c-2.2,4.166-4.532,8.344-6.93,12.416-2.358,4-4.829,8.017-7.346,11.929a221.145,221.145,0,0,0,22.329-3.73,210.429,210.429,0,0,0-8.054-20.615ZM53.105,74.712h0c-2.756.761-5.527,1.615-8.235,2.538C34.464,80.8,25.664,85.293,19.423,90.232a31.982,31.982,0,0,0-6.834,7.086,12.346,12.346,0,0,0-2.368,6.751,12.592,12.592,0,0,0,2.239,6.6A32.65,32.65,0,0,0,19.149,118c6.729,5.639,16.379,10.66,27.908,14.52,1.944.649,3.931,1.258,5.906,1.81,1.621-5.1,3.436-10.218,5.4-15.2s4.116-9.972,6.408-14.819a238.244,238.244,0,0,1-11.662-29.6Zm133.173.147a232.977,232.977,0,0,1-11.646,29.259c2.351,4.785,4.563,9.712,6.575,14.644s3.876,10,5.54,15.049c1.49-.434,2.8-.838,4.019-1.233,11.375-3.692,21.062-8.444,28.015-13.742a35.138,35.138,0,0,0,7.6-7.574,12.811,12.811,0,0,0,2.649-7.192,12.145,12.145,0,0,0-2.456-6.76,33,33,0,0,0-7.064-7.137c-6.447-4.991-15.481-9.525-26.126-13.114C191.178,76.31,188.786,75.571,186.278,74.859Zm-31.7-6.238c2.5,3.843,4.948,7.787,7.273,11.722,2.369,4,4.685,8.108,6.883,12.2a211.416,211.416,0,0,0,7.657-20.181C169.539,70.824,162.2,69.567,154.574,68.621ZM84.729,68.6C77,69.551,69.7,70.78,63.038,72.253c2.084,6.582,4.641,13.405,7.6,20.279,2.149-4.076,4.422-8.154,6.757-12.121h-.008C79.728,76.433,82.2,72.46,84.729,68.6Zm83.5-58.612c-4.359,0-9.866,1.588-15.924,4.59a83.938,83.938,0,0,0-9.629,5.662,116.178,116.178,0,0,0-10.259,7.84c-1.863,1.595-3.714,3.259-5.5,4.945,3.634,3.878,7.179,7.925,10.536,12.03s6.618,8.377,9.687,12.7A250.39,250.39,0,0,1,179.125,62.7c.384-1.536.747-3.1,1.078-4.658,2.417-11.5,3.055-22.094,1.844-30.638a34.225,34.225,0,0,0-2.9-10.236,13.064,13.064,0,0,0-5.04-5.843A11.865,11.865,0,0,0,168.226,9.99Zm-97.408.231a12.482,12.482,0,0,0-6.19,1.41,12.359,12.359,0,0,0-4.74,5.465,32.174,32.174,0,0,0-2.765,9.563c-1.179,7.966-.659,17.9,1.5,28.721v0c.479,2.407,1.033,4.837,1.644,7.222A255.311,255.311,0,0,1,92.2,57.744c3.1-4.314,6.387-8.582,9.771-12.686s6.952-8.148,10.607-12.024c-1.265-1.183-2.439-2.244-3.588-3.243a105.388,105.388,0,0,0-21.16-14.6C81.359,11.938,75.477,10.221,70.818,10.221Zm48.926,29.967v0c-4.784,5.051-9.561,10.651-14.2,16.644,4.7-.217,9.455-.326,14.142-.326s9.447.11,14.136.326A216.607,216.607,0,0,0,119.744,40.188Z" transform="matrix(0.996, 0.087, -0.087, 0.996, 1160.164, 702.126)"/>
    <path id="Path_10259" data-name="Path 10259" class="cls-1" d="M557.207,456.79a20.936,20.936,0,1,1-21.367,20.932,21.153,21.153,0,0,1,21.367-20.932" transform="translate(713.042 338.503)"/>
  </g>
</svg>
