<svg xmlns="http://www.w3.org/2000/svg" xmlns:xlink="http://www.w3.org/1999/xlink" viewBox="0 0 653.853 885.001"><defs><style>.a{fill:#051b32;}.b{fill:#3ac4e7;}.c,.f{fill:#fff;}.d{fill:url(#a);}.e{fill:#69cbda;}.f{stroke:#3ac4e7;}.f,.h{stroke-miterlimit:10;stroke-width:0.5px;}.g{fill:#1e6da9;}.h{fill:none;stroke:#69cbda;}.i{fill:url(#b);}.j{fill:url(#c);}</style><radialGradient id="a" cx="315.94" cy="232.262" r="1492.186" gradientTransform="translate(198.517 185.468) scale(0.353 0.114)" gradientUnits="userSpaceOnUse"><stop offset="0" stop-color="#1e6da9"/><stop offset="0.147" stop-color="#1e6aa4"/><stop offset="0.306" stop-color="#206398"/><stop offset="0.472" stop-color="#205886"/><stop offset="0.641" stop-color="#1e496f"/><stop offset="0.814" stop-color="#163552"/><stop offset="0.987" stop-color="#071d34"/><stop offset="1" stop-color="#051b32"/></radialGradient><linearGradient id="b" x1="0.5" y1="0.993" x2="0.5" y2="0.014" gradientUnits="objectBoundingBox"><stop offset="0" stop-color="#fff" stop-opacity="0"/><stop offset="0.133" stop-color="#fef9fd" stop-opacity="0.133"/><stop offset="0.305" stop-color="#fae9ee" stop-opacity="0.306"/><stop offset="0.498" stop-color="#f3cfe0" stop-opacity="0.498"/><stop offset="0.707" stop-color="#eaaad5" stop-opacity="0.706"/><stop offset="0.926" stop-color="#ff3b6a"/><stop offset="1" stop-color="#f60b44"/></linearGradient><linearGradient id="c" x1="0.5" y1="0.993" x2="0.5" y2="0.014" gradientUnits="objectBoundingBox"><stop offset="0" stop-color="#fff" stop-opacity="0"/><stop offset="1" stop-color="#fff"/></linearGradient></defs><g transform="translate(-1051 -3437)"><g transform="translate(1051 3437)"><g transform="translate(193.275)"><path class="a" d="M222.292,48.371a691.156,691.156,0,0,1,130.182,12.2C333.546,25.237,282.441,0,222.292,0S111.038,25.237,91.9,60.569A695.112,695.112,0,0,1,222.292,48.371Z" transform="translate(-91.9)"/><g transform="translate(25.447)"><path class="b" d="M153.9,0c47.74,0,108.31,21.031,125.134,67.509l-65.827-4.837C213.207,62.883,200.8,3.786,153.9,0Z" transform="translate(-48.955)"/><path class="c" d="M134.495,48.278c8.2-13.46,26.5-36.594,59.1-46.478,0,0-62.462,6.94-89.592,50.264C113.885,50.592,123.979,49.33,134.495,48.278Z" transform="translate(-104 1.986)"/><path class="c" d="M126.189,47.227A101.025,101.025,0,0,1,179.4,1.8s-35.122,6.52-59.1,46.058C122.4,47.648,124.3,47.437,126.189,47.227Z" transform="translate(-86.02 1.986)"/></g></g><path class="d" d="M500.394,78.942a35.976,35.976,0,0,1-18.087-12.829c-5.468-7.361-10.936-13.88-15.353-18.928a37.341,37.341,0,0,0-19.769-11.567C406.175,27.417,360.748,23,314.059,23s-92.116,4.417-133.126,12.619a34.65,34.65,0,0,0-19.769,11.567c-4.417,4.837-9.885,11.567-15.353,18.928a35.976,35.976,0,0,1-18.087,12.829C56.64,101.235,8.9,136.357,8.9,178c0,33.439,136.491,60.569,304.949,60.569S618.8,211.438,618.8,178C618.8,136.357,571.058,101.235,500.394,78.942Z" transform="translate(9.818 25.371)"/><path class="e" d="M592.187,125.005c0,28.182-128.71,53.208-287.493,53.208S17.2,153.187,17.2,125.005,145.91,73.9,304.693,73.9,592.187,96.824,592.187,125.005Z" transform="translate(18.973 81.519)"/><g transform="translate(70.874 101.79)"><path class="b" d="M539.285,83.1S531.5,81,518.043,77c-6.73-1.682-14.932-4-24.4-6.309-9.464-2.1-20.19-4.837-31.967-6.94-5.889-1.052-11.988-2.313-18.507-3.365-6.309-.841-13.039-1.682-19.769-2.734-3.365-.421-6.94-1.052-10.305-1.262-3.575-.21-7.15-.631-10.726-1.052-7.151-.631-14.511-1.262-22.083-2.1-7.571-.631-15.142-.841-22.713-1.262-7.781-.421-15.563-.841-23.344-1.052-15.773-.21-31.757-.421-47.74-.631-15.984.21-31.967.421-47.74.631-7.781.21-15.563.841-23.344,1.052-7.781.421-15.353.631-22.713,1.262s-14.722,1.262-22.083,2.1c-3.575.421-7.151.631-10.726,1.052s-6.94.841-10.305,1.262c-6.73.841-13.46,1.893-19.769,2.734S117.4,62.7,111.3,63.753c-11.777,2.1-22.5,4.837-31.967,6.94C69.873,73.006,61.671,75.32,54.941,77,41.481,80.788,33.7,83.1,33.7,83.1s7.571-2.313,21.031-6.309c6.73-1.893,14.932-4.417,24.4-6.73S99.317,64.8,111.094,62.7c5.889-1.052,11.988-2.524,18.507-3.365,6.309-.841,13.039-1.893,19.769-2.944,3.365-.421,6.94-1.052,10.305-1.472,3.575-.421,7.15-.631,10.726-1.052,7.151-.631,14.511-1.472,22.083-2.1s15.142-.841,22.924-1.262l23.344-1.262c15.773-.21,31.757-.631,47.74-.841,15.984.21,31.967.631,47.74.841,7.781.21,15.773.841,23.344,1.262,7.781.421,15.353.841,22.924,1.262,7.571.631,14.932,1.472,22.082,2.1,3.575.421,7.151.631,10.726,1.052s6.94,1.052,10.305,1.472c6.73,1.052,13.46,1.893,19.769,2.944S456,61.65,461.891,62.7c11.777,2.1,22.5,5.047,31.967,7.361,9.464,2.524,17.666,4.837,24.4,6.73C531.714,80.788,539.285,83.1,539.285,83.1Z" transform="translate(-33.7 -48.4)"/></g><g transform="translate(57.625 110.833)"><path class="b" d="M559.9,87.4s-8.2-2.1-22.293-6.1c-7.151-1.682-15.773-4-25.868-6.309-10.095-2.1-21.241-4.837-33.86-6.94-3.155-.631-6.309-1.052-9.464-1.682s-6.52-1.262-9.884-1.682c-6.73-.841-13.67-1.893-20.821-2.734-3.575-.421-7.151-1.052-10.936-1.262-3.786-.421-7.361-.631-11.146-1.052-7.571-.631-15.353-1.262-23.134-2.1-7.781-.421-15.984-.841-23.975-1.262-8.2-.421-16.4-.841-24.606-1.052-16.614-.21-33.439-.421-50.264-.631-16.825.21-33.65.421-50.264.631-8.2.21-16.4.631-24.606,1.052s-16.194.631-23.975,1.262-15.563,1.262-23.134,2.1c-3.786.421-7.571.631-11.146,1.052-3.786.421-7.361.841-10.936,1.262-7.151.841-14.091,1.893-20.821,2.734-3.365.421-6.73,1.052-9.885,1.682s-6.309,1.052-9.464,1.682c-12.408,2.1-23.765,4.837-33.86,6.94C65.466,77.306,56.843,79.62,49.693,81.3,35.392,85.088,27.4,87.4,27.4,87.4s8.2-2.313,22.293-6.309c7.151-1.893,15.773-4.417,25.658-6.73C85.446,72.049,96.592,69.1,109,67c3.155-.631,6.309-1.052,9.464-1.682s6.52-1.262,9.885-1.682c6.73-.841,13.67-1.893,21.031-2.944,3.575-.421,7.151-1.052,10.936-1.472s7.361-.631,11.146-1.052c7.571-.631,15.353-1.472,23.134-2.1s15.984-.841,23.975-1.262l24.606-1.262c16.614-.21,33.439-.631,50.264-.841,16.825.21,33.65.631,50.264.841,8.2.21,16.614.841,24.606,1.262q12.3.631,23.975,1.262c7.781.631,15.563,1.472,23.134,2.1,3.786.421,7.571.631,11.146,1.052,3.786.421,7.361,1.052,10.936,1.472,7.15,1.052,14.091,1.893,21.031,2.944,3.365.421,6.73,1.052,9.885,1.682s6.309,1.262,9.464,1.682c12.408,2.1,23.765,5.047,33.65,7.361,9.885,2.524,18.507,4.837,25.658,6.73C551.912,85.088,559.9,87.4,559.9,87.4Z" transform="translate(-27.4 -52.7)"/></g><g transform="translate(92.747 173.085)"><ellipse class="f" cx="24.396" cy="7.361" rx="24.396" ry="7.361" transform="translate(209.889)"/><ellipse class="f" cx="22.503" cy="6.73" rx="22.503" ry="6.73" transform="translate(91.064 8.833)"/><ellipse class="f" cx="20.19" cy="6.099" rx="20.19" ry="6.099" transform="translate(0 34.28)"/><ellipse class="f" cx="16.614" cy="5.047" rx="16.614" ry="5.047" transform="translate(73.188 63.934)"/><ellipse class="f" cx="22.503" cy="6.73" rx="22.503" ry="6.73" transform="translate(332.289 8.833)"/><ellipse class="f" cx="20.19" cy="6.099" rx="20.19" ry="6.099" transform="translate(427.98 34.28)"/><ellipse class="f" cx="16.614" cy="5.047" rx="16.614" ry="5.047" transform="translate(361.943 63.934)"/></g><g transform="translate(0 199.374)"><path class="c" d="M358.335,117.913c0,12.408-59.938,23.555-133.967,23.555S90.4,130.322,90.4,117.913,150.338,95.2,224.367,95.2,358.335,105.295,358.335,117.913Z" transform="translate(99.72 -94.359)"/><path class="g" d="M90.3,120.722c0,12.408,59.938,23.555,133.967,23.555s133.967-11.146,133.967-23.555V106c0,12.408-59.938,23.555-133.967,23.555S90.3,118.408,90.3,106Z" transform="translate(99.61 -82.445)"/><path class="h" d="M358.335,112.7c0,12.408-59.938,23.555-133.967,23.555S90.4,125.108,90.4,112.7" transform="translate(99.72 -75.055)"/><g transform="translate(0 12.198)"><path class="i" d="M653.853,774.029,398.116,100.6H255.737L0,774.029Z" transform="translate(0 -100.6)"/><path class="j" d="M409.862,774.029,302.183,100.6h-118.4L76.1,774.029Z" transform="translate(83.946 -100.6)"/></g><path class="b" d="M358.335,132.635c0-12.408-59.938-22.713-133.967-22.713S90.4,120.017,90.4,132.635V117.913c0-12.408,59.938-22.713,133.967-22.713s133.967,10.095,133.967,22.713Z" transform="translate(99.72 -94.359)"/><g transform="translate(189.897)"><path class="g" d="M90.307,118.355a4.2,4.2,0,0,1,1.052-2.944,18.367,18.367,0,0,1,7.151-5.047c6.94-3.155,17.456-6.1,30.495-8.412a396.691,396.691,0,0,1,44.375-5.258c16.194-1.262,33.65-1.893,51.105-1.893s34.911.631,51.105,1.893,31.546,3.155,44.375,5.258c12.829,2.313,23.555,5.258,30.495,8.412,3.365,1.682,5.889,3.365,7.151,5.047a4.2,4.2,0,0,1,1.052,2.944,3.628,3.628,0,0,0-1.052-2.734c-1.262-1.682-3.786-3.365-7.151-4.837-6.94-3.155-17.666-5.468-30.495-7.571s-27.971-3.575-44.165-4.627-33.65-1.682-51.105-1.472c-17.456,0-34.7.421-51.105,1.472-16.194,1.052-31.336,2.524-44.165,4.627s-23.555,4.627-30.495,7.571c-3.365,1.472-5.889,3.155-7.151,4.837C90.307,117.093,90.517,118.355,90.307,118.355Z" transform="translate(-90.294 -94.8)"/></g><path class="h" d="M90.3,124.613c0-12.408,59.938-22.713,133.967-22.713s133.967,10.095,133.967,22.713" transform="translate(99.61 -86.968)"/></g></g></g></svg>